<?xml version="1.0" encoding="UTF-8" standalone="no"?>
<!-- Created with Inkscape (http://www.inkscape.org/) -->

<svg
   xmlns:dc="http://purl.org/dc/elements/1.1/"
   xmlns:cc="http://creativecommons.org/ns#"
   xmlns:rdf="http://www.w3.org/1999/02/22-rdf-syntax-ns#"
   xmlns:svg="http://www.w3.org/2000/svg"
   xmlns="http://www.w3.org/2000/svg"
   xmlns:sodipodi="http://sodipodi.sourceforge.net/DTD/sodipodi-0.dtd"
   xmlns:inkscape="http://www.inkscape.org/namespaces/inkscape"
   width="128.44582mm"
   height="79.849106mm"
   viewBox="0 0 128.44582 79.849106"
   version="1.1"
   id="svg5418"
   inkscape:version="0.92.3 (2405546, 2018-03-11)"
   sodipodi:docname="logo2.svg">
  <defs
     id="defs5412">
    <filter
       inkscape:label="Sharpen More"
       inkscape:menu="Image Effects"
       inkscape:menu-tooltip="Sharpen edges and boundaries within the object, force=0.3"
       style="color-interpolation-filters:sRGB;"
       id="filter6824">
      <feConvolveMatrix
         targetY="1"
         targetX="1"
         in="SourceGraphic"
         divisor="1"
         kernelMatrix="0 -0.3 0 -0.3 2.2 -0.3 0 -0.3 0"
         order="3 3"
         result="result1"
         id="feConvolveMatrix6820" />
      <feBlend
         in2="SourceGraphic"
         mode="normal"
         result="result2"
         id="feBlend6822" />
    </filter>
  </defs>
  <sodipodi:namedview
     id="base"
     pagecolor="#ffffff"
     bordercolor="#666666"
     borderopacity="1.0"
     inkscape:pageopacity="0.0"
     inkscape:pageshadow="2"
     inkscape:zoom="0.98994949"
     inkscape:cx="326.36313"
     inkscape:cy="40.252809"
     inkscape:document-units="mm"
     inkscape:current-layer="layer1"
     showgrid="false"
     inkscape:pagecheckerboard="true"
     inkscape:window-width="1920"
     inkscape:window-height="1137"
     inkscape:window-x="-8"
     inkscape:window-y="-8"
     inkscape:window-maximized="1"
     fit-margin-top="0"
     fit-margin-left="0"
     fit-margin-right="0"
     fit-margin-bottom="0" />
  <metadata
     id="metadata5415">
    <rdf:RDF>
      <cc:Work
         rdf:about="">
        <dc:format>image/svg+xml</dc:format>
        <dc:type
           rdf:resource="http://purl.org/dc/dcmitype/StillImage" />
        <dc:title></dc:title>
      </cc:Work>
    </rdf:RDF>
  </metadata>
  <g
     inkscape:label="Layer 1"
     inkscape:groupmode="layer"
     id="layer1"
     transform="translate(-268.70931,156.93837)">
    <path
       style="fill:#ffffff;fill-opacity:0;stroke:#ffffff;stroke-width:7.50217247;stroke-miterlimit:4;stroke-dasharray:none"
       d=""
       id="path6027"
       inkscape:connector-curvature="0"
       transform="scale(0.26458333)" />
    <g
       id="g6060"
       transform="translate(-95.949761,34.745039)"
       style="filter:url(#filter6824)">
      <path
         style="fill:#a8cfdb;stroke-width:0.26458332"
         d="m 390.3624,-112.29638 c -0.7739,-0.25293 -1.83548,-0.8106 -2.35908,-1.23927 -0.52361,-0.42867 -1.54698,-1.01948 -2.27417,-1.3129 l -1.32216,-0.5335 -1.24191,-3.5761 -1.24192,-3.5761 0.33055,-2.10709 c 0.31487,-2.00714 0.30224,-2.16361 -0.26628,-3.29873 -0.32827,-0.6554 -0.68276,-1.6679 -0.78778,-2.24998 -0.27032,-1.49834 -1.0708,-2.79408 -2.2427,-3.6303 -1.08365,-0.77324 -1.34017,-1.46175 -1.34599,-3.61267 -0.002,-0.89356 -0.23829,-1.6362 -0.8743,-2.7527 -0.47904,-0.84095 -0.93611,-1.46387 -1.01572,-1.38427 -0.25892,0.25892 0.08,2.87234 0.59594,4.59479 0.277,0.92483 0.50625,2.05593 0.50945,2.51354 0.009,1.26567 0.95941,3.10733 2.13651,4.13932 1.30728,1.14612 1.58052,2.36628 0.8066,3.6019 -0.64041,1.02246 -2.50594,1.95435 -3.91238,1.95435 -1.95555,0 -2.78738,-1.60691 -3.40737,-6.58226 -0.22089,-1.77263 -0.55443,-3.28403 -0.81122,-3.67593 -0.38215,-0.58324 -0.39716,-0.89813 -0.12138,-2.54587 0.29422,-1.75799 0.26115,-2.12931 -0.50842,-5.70769 -0.45272,-2.10506 -1.17179,-5.28633 -1.59794,-7.0695 -0.42615,-1.78316 -0.88278,-4.31852 -1.01474,-5.63414 -0.19817,-1.97566 -0.3724,-2.58187 -1.00093,-3.48268 -0.41855,-0.59986 -0.97115,-1.40233 -1.22799,-1.78327 -0.58339,-0.86525 -1.52058,-3.82088 -1.50787,-4.75539 0.005,-0.38485 0.30512,-1.05692 0.66641,-1.49348 0.58444,-0.70619 2.00543,-4.67662 2.76387,-7.72259 0.15175,-0.60941 0.74955,-1.70724 1.32847,-2.43962 0.94955,-1.20127 1.05257,-1.47992 1.05257,-2.84715 0,-0.99492 0.295,-2.41558 0.85874,-4.13547 0.81105,-2.47437 0.96905,-2.73521 2.84428,-4.69524 2.45651,-2.56761 3.26383,-2.82583 5.46296,-1.74727 1.25107,0.61358 1.41735,0.78969 1.41735,1.50107 0,0.44326 -0.17896,1.07906 -0.39769,1.41288 -0.39555,0.60369 -0.38791,0.60904 1.42761,0.99885 l 1.82529,0.3919 1.92691,-1.1191 c 1.58292,-0.91931 2.46054,-1.21855 4.91602,-1.67616 l 2.9891,-0.55706 2.45251,0.70557 c 1.92837,0.55478 2.84861,0.9989 4.30586,2.07807 1.68398,1.24706 1.90002,1.51565 2.36402,2.93899 0.28086,0.86157 0.67087,1.89392 0.86669,2.2941 l 0.35602,0.72761 h 6.06301 c 4.12349,0 6.12054,0.0931 6.24285,0.29099 0.0989,0.16005 -0.0757,0.60654 -0.38799,0.99219 -4.82263,5.95522 -7.13146,10.67136 -8.3904,17.1387 -0.54162,2.78237 -0.62286,8.58688 -0.15904,11.364 0.74343,4.45131 2.86554,9.91351 5.24311,13.49546 0.53907,0.81216 0.8874,1.61326 0.80023,1.84043 -0.13556,0.35326 -1.60685,0.39325 -12.07757,0.32827 l -11.92321,-0.074 -0.1283,0.66146 c -0.0706,0.3638 -0.2991,1.17114 -0.50785,1.79408 -0.25409,0.75823 -0.30133,1.33838 -0.14291,1.75505 0.31815,0.83679 -0.8557,4.54768 -1.72751,5.46118 -0.56134,0.58817 -0.64509,0.92311 -0.64509,2.57968 0,1.53277 0.10024,2.004 0.51441,2.41816 0.28292,0.28293 0.59315,0.96754 0.6894,1.52136 0.29475,1.69611 1.19786,2.78781 3.0601,3.69914 2.47709,1.21221 3.52483,2.58492 2.88519,3.7801 -0.35399,0.66143 -1.20705,0.67349 -3.13222,0.0443 z m 44.79874,-12.75002 c -10.44909,-2.16793 -19.14176,-9.18377 -23.39145,-18.87921 -2.95256,-6.73612 -3.49371,-14.97227 -1.44904,-22.05419 0.69439,-2.40508 2.46429,-6.35018 3.75295,-8.36528 2.29313,-3.58581 6.41962,-7.7123 10.00543,-10.00543 2.01509,-1.28865 5.9602,-3.05856 8.36528,-3.75295 5.15849,-1.48934 11.94918,-1.60607 17.00433,-0.2923 12.56064,3.26435 22.0371,13.5609 24.08145,26.16545 2.56208,15.79661 -6.51884,30.90241 -21.7002,36.09753 -4.84402,1.65765 -11.74689,2.10754 -16.66875,1.08638 z m 34.3599,-11.2273 c -0.0996,-0.25963 0.16015,-0.88072 0.65877,-1.57505 2.15263,-2.99747 4.28747,-8.24248 5.22884,-12.84651 0.66272,-3.24117 0.61498,-9.32853 -0.10071,-12.84239 -1.19027,-5.84394 -4.77149,-13.08132 -7.97299,-16.11284 -0.45138,-0.42741 -0.82068,-1.00061 -0.82068,-1.27378 0,-0.47703 0.32713,-0.49339 8.26823,-0.41352 l 8.26823,0.0832 1.85208,0.90258 c 2.56804,1.25149 5.03679,3.75228 6.30005,6.38183 1.85208,3.8552 1.90203,4.25802 1.90203,15.33746 0,8.61234 -0.0607,10.14152 -0.46023,11.58602 -1.37058,4.9558 -4.24959,8.54742 -8.28759,10.3389 -1.53843,0.68254 -1.70641,0.69867 -8.12123,0.77989 -5.84253,0.074 -6.56807,0.0366 -6.7148,-0.34575 z"
         id="path6074"
         inkscape:connector-curvature="0" />
      <path
         style="fill:#9ba19b;stroke-width:0.26458332"
         d="m 390.2035,-112.61652 c -0.71576,-0.29376 -1.74167,-0.88283 -2.27979,-1.30903 -0.53813,-0.4262 -1.50848,-1.00212 -2.15634,-1.27983 l -1.17794,-0.50492 -1.12229,-3.40342 -1.1223,-3.40341 0.279,-2.24896 c 0.26726,-2.15434 0.25124,-2.30372 -0.38091,-3.55057 -0.36295,-0.71589 -0.65991,-1.55572 -0.65991,-1.86628 0,-1.01333 -1.296,-3.15638 -2.34497,-3.87763 -0.98996,-0.68067 -1.01525,-0.73934 -1.18515,-2.74921 -0.14478,-1.71285 -0.34032,-2.34393 -1.17816,-3.8024 -0.55251,-0.96179 -1.11816,-1.68917 -1.257,-1.61641 -0.13884,0.0728 -0.26768,0.54901 -0.28631,1.05833 -0.0186,0.50932 -0.0484,1.07487 -0.0661,1.25677 -0.018,0.18458 -0.38592,0.33073 -0.83256,0.33073 -1.03853,0 -1.44564,0.91857 -1.05314,2.37622 0.3861,1.43388 0.87818,1.77232 1.74811,1.20232 0.93456,-0.61235 1.27183,-0.22391 1.32055,1.52091 0.0533,1.90816 0.64485,3.08725 2.04239,4.07084 2.1355,1.50295 1.95211,3.52499 -0.42724,4.71067 -1.78059,0.88731 -2.8064,0.87158 -3.68397,-0.0565 -0.81157,-0.85825 -1.10211,-1.87133 -1.6215,-5.65379 -0.21219,-1.54524 -0.58461,-3.19399 -0.82761,-3.66391 -0.37974,-0.73434 -0.39712,-1.04072 -0.12366,-2.18062 0.40982,-1.7083 0.28101,-2.68277 -1.19927,-9.07303 -1.85812,-8.0214 -1.9794,-8.63235 -1.98435,-9.99652 -0.006,-1.52964 -0.43304,-2.6172 -1.66116,-4.22612 -0.98653,-1.29243 -2.0476,-4.03541 -2.0476,-5.29326 0,-0.41802 0.29532,-1.14722 0.65626,-1.62045 0.79085,-1.03685 1.25637,-2.28918 2.26193,-6.08501 0.63626,-2.40174 0.94044,-3.09028 1.83276,-4.14851 0.98214,-1.16476 1.06988,-1.39506 1.06988,-2.8082 0,-1.01733 0.27961,-2.37867 0.8245,-4.01422 0.70953,-2.12978 1.06007,-2.74497 2.51403,-4.41207 2.31219,-2.65114 3.66729,-3.04577 5.86643,-1.7084 0.64111,0.38988 0.84921,0.70396 0.84921,1.28168 0,0.42088 -0.1786,0.91346 -0.39688,1.09462 -0.54355,0.45111 -0.49954,1.05833 0.0767,1.05833 0.26046,0 1.17056,0.18155 2.02244,0.40343 1.33341,0.34731 1.60798,0.35161 1.97382,0.0309 1.22391,-1.073 3.51299,-2.01311 6.21584,-2.55281 1.58427,-0.31635 3.13208,-0.51654 3.43959,-0.44488 2.20471,0.5138 4.27652,1.27949 5.36594,1.98311 2.14392,1.38469 2.62825,1.98952 3.25727,4.06764 0.3224,1.06513 0.70827,2.08542 0.85749,2.26732 0.20266,0.24704 1.80302,0.33073 6.32434,0.33073 4.19388,0 6.05302,0.0886 6.05302,0.28853 0,0.15869 -0.5174,0.90283 -1.14977,1.65365 -3.49263,4.14677 -6.00772,9.2984 -7.3691,15.094 -0.77449,3.29715 -0.84105,10.60048 -0.1263,13.85873 0.92498,4.21659 3.0419,9.37924 5.04768,12.31007 1.29607,1.89378 1.95542,1.7876 -10.62386,1.71088 l -11.31094,-0.069 -0.0343,-0.92604 c -0.0491,-1.32472 0.12183,-1.80221 0.71221,-1.98959 0.55156,-0.17506 1.40164,-1.5614 1.2452,-2.03072 -0.0514,-0.15414 -0.64898,0.20057 -1.328,0.78825 -0.67902,0.58769 -1.59349,1.14735 -2.03216,1.2437 -0.81266,0.17849 -1.97028,1.31776 -2.25704,2.22125 -0.0873,0.27519 -0.98853,1.11733 -2.00266,1.87144 -1.01412,0.75411 -1.84386,1.53937 -1.84386,1.74502 0,0.46616 1.03154,0.74048 2.24968,0.59827 0.88561,-0.10339 0.92532,-0.072 0.92532,0.73125 0,0.46161 -0.24512,1.39342 -0.54471,2.07071 -0.30674,0.69343 -0.47234,1.45949 -0.37905,1.75343 0.17313,0.54549 1.03837,0.71413 1.32064,0.25741 0.32548,-0.52664 0.6947,-0.24805 0.61289,0.46243 -0.0576,0.50016 -0.39333,0.9268 -1.07591,1.36725 -0.54795,0.35358 -0.99219,0.8556 -0.99219,1.12127 0,0.26457 -0.13973,1.00349 -0.31052,1.64205 -0.37591,1.40549 0.0607,2.81533 0.87179,2.81533 0.29993,0 0.49706,0.18651 0.49706,0.4703 0,0.25866 0.18607,0.73594 0.41349,1.06063 0.22743,0.32469 0.37626,0.95792 0.33073,1.40717 -0.0918,0.90611 0.2224,1.0927 3.26154,1.93691 1.89634,0.52675 3.2096,1.68387 3.09028,2.72285 -0.0697,0.60713 -0.22401,0.74671 -0.87833,0.79451 -0.43656,0.0319 -1.37937,-0.18236 -2.09514,-0.47613 z m -5.97114,-12.15805 c 0.18277,-0.44123 0.25551,-0.87903 0.16166,-0.97288 -0.2337,-0.2337 -0.94013,0.74147 -0.95051,1.31209 -0.0133,0.72932 0.42416,0.54123 0.78885,-0.33921 z m -1.06831,-13.41913 c -0.004,-0.25466 -0.12635,-0.98295 -0.27286,-1.61842 -0.21309,-0.9242 -0.1904,-1.21539 0.11339,-1.45521 0.54285,-0.42852 0.26142,-2.01959 -0.35723,-2.01959 -0.39338,0 -0.44811,-0.20236 -0.36352,-1.34396 0.0846,-1.14195 0.01,-1.41901 -0.49905,-1.84328 -0.73043,-0.60925 -0.99551,-0.64122 -0.99551,-0.12006 0,0.47604 -0.20105,0.48712 -1.7521,0.0966 -1.7865,-0.44984 -1.9857,-0.0495 -0.83446,1.67713 0.51389,0.77072 1.37192,2.17522 1.90673,3.12111 1.87579,3.31756 3.07114,4.68945 3.05461,3.50572 z m 9.65367,-5.95312 c 0.85866,-0.75076 1.34516,-2.27628 0.79343,-2.488 -0.79047,-0.30333 -3.29688,1.86932 -3.29688,2.85786 0,0.4852 1.83567,0.214 2.50345,-0.36986 z m 1.33301,-3.72171 c 0.29104,0.0124 0.79273,0.10862 1.11487,0.21377 0.88959,0.29039 4.41112,-3.24868 4.83599,-4.86009 0.16795,-0.63698 0.2073,-1.2562 0.0874,-1.37607 -0.11987,-0.11986 -0.68374,-0.11287 -1.25305,0.0155 -0.84211,0.18993 -1.54331,0.76719 -3.76052,3.09586 -1.49897,1.57432 -2.7297,2.95972 -2.73496,3.07867 -0.005,0.11894 0.25832,0.1248 0.58575,0.013 0.32742,-0.11179 0.83343,-0.1931 1.12448,-0.18067 z m 1.71847,-12.021 c 0.002,-0.45541 -0.28971,-0.40142 -0.99087,0.18351 -0.59948,0.50011 -0.76115,1.08381 -0.40016,1.4448 0.22583,0.22583 1.38908,-1.13584 1.39103,-1.62831 z m -5.10961,-1.17409 c -0.0845,-0.21106 -0.14716,-0.14837 -0.15985,0.15986 -0.0115,0.27891 0.051,0.43518 0.13896,0.34726 0.0879,-0.0879 0.0973,-0.31612 0.0209,-0.50712 z m 7.73836,-1.91518 c 0.65443,-0.6966 0.54727,-1.21021 -0.25249,-1.21021 -0.5243,0 -1.05203,0.72125 -1.05203,1.43782 0,0.61143 0.6175,0.5037 1.30452,-0.22761 z m -9.47914,-0.49483 c -0.33959,-0.33959 -0.68396,-0.0771 -0.43255,0.32967 0.0974,0.15757 0.29828,0.21159 0.44643,0.12003 0.18071,-0.11169 0.17614,-0.25968 -0.0139,-0.4497 z m 5.58612,-0.23472 c -0.40416,-0.40415 -0.70238,-0.10593 -0.47822,0.47822 0.13236,0.3449 0.2471,0.37908 0.48248,0.1437 0.23538,-0.23538 0.23437,-0.38329 -0.004,-0.62192 z m 1.80475,-2.35109 c 0.8362,-0.74131 0.85839,-0.79635 0.25459,-0.63142 -0.3638,0.0994 -1.10795,0.23919 -1.65365,0.31072 -0.5457,0.0715 -0.99219,0.27629 -0.99219,0.45503 0,0.96408 1.2302,0.89497 2.39125,-0.13433 z m 3.94914,-0.10235 c 0.17586,-0.21191 0.24275,-0.50989 0.14863,-0.66218 -0.23534,-0.38077 -1.19735,0.14942 -1.19735,0.6599 0,0.49888 0.63543,0.50026 1.04872,0.002 z m -6.82105,-4.16996 c -0.18985,-0.18986 -0.31309,-0.20548 -0.31309,-0.0397 0,0.35316 0.3129,0.66606 0.48948,0.48948 0.0752,-0.0752 -0.004,-0.27759 -0.17639,-0.44979 z m 5.80307,-1.79303 c 0.21849,-0.72925 0.58557,-1.21531 1.18483,-1.56889 1.04378,-0.61584 1.52974,-1.49665 1.94955,-3.53357 0.35847,-1.7393 0.0343,-3.93093 -0.70166,-4.74419 -0.55326,-0.61134 -0.78175,-0.59807 -0.95262,0.0553 -0.25995,0.99405 -3.09834,0.41993 -3.09834,-0.6267 0,-0.46239 1.4524,-1.48997 2.10595,-1.48997 0.29694,0 0.53988,-0.0445 0.53988,-0.099 0,-0.25175 -1.37574,-2.52385 -1.66206,-2.74497 -0.93035,-0.71852 -1.21324,-0.58341 -1.96679,0.93932 -0.70531,1.42525 -0.72832,1.58011 -0.42059,2.83065 0.25533,1.0376 0.58823,1.55311 1.54354,2.39023 0.97332,0.8529 1.24703,1.28373 1.36251,2.14467 0.0808,0.60269 0.009,1.32972 -0.16204,1.65014 -0.40687,0.76026 -0.13935,1.17484 0.52774,0.81783 0.76871,-0.4114 0.67328,0.46072 -0.28064,2.56454 -0.82753,1.82507 -0.96865,2.47114 -0.53979,2.47114 0.13968,0 0.39642,-0.47548 0.57053,-1.05661 z m -8.89428,-8.99756 c 0.0899,-0.14552 -0.0816,-0.26458 -0.38126,-0.26458 -0.29963,0 -0.54478,0.11906 -0.54478,0.26458 0,0.14552 0.17156,0.26458 0.38126,0.26458 0.20969,0 0.45484,-0.11906 0.54478,-0.26458 z m 3.42573,-2.63052 c 0.52721,-0.58256 0.5442,-0.51015 -0.51591,-2.19813 -0.76032,-1.21061 -1.19852,-1.43996 -2.09443,-1.09617 -0.52939,0.20315 -0.54141,0.99553 -0.0216,1.4269 0.21828,0.18116 0.39687,0.54428 0.39687,0.80695 0,0.43807 1.14191,1.5743 1.58218,1.5743 0.10334,0 0.39716,-0.23123 0.65293,-0.51385 z m 42.61177,58.58908 c -6.99052,-1.12879 -13.29719,-4.47247 -18.25916,-9.68068 -13.30443,-13.96466 -11.33367,-36.22403 4.24446,-47.94034 12.24108,-9.20652 29.89866,-8.09596 41.11029,2.58559 10.11269,9.63457 12.89982,24.56828 6.92115,37.08409 -1.62333,3.39829 -3.17091,5.61254 -5.94093,8.50019 -4.37177,4.55741 -9.27928,7.36447 -15.64039,8.94619 -3.40641,0.84702 -8.92843,1.07125 -12.43542,0.50496 z m 23.71766,-21.86979 c 1.36939,-0.41028 3.09675,-1.92887 3.69684,-3.25005 0.66473,-1.46346 0.66186,-4.08494 -0.006,-5.38312 -0.75314,-1.46419 -1.74239,-2.27264 -4.50223,-3.67936 -2.06288,-1.05148 -2.58207,-1.44348 -3.00568,-2.26935 -0.74322,-1.44899 -0.44332,-3.16613 0.76376,-4.37322 0.98618,-0.98617 0.648,-0.9525 5.2306,-0.52085 0.57894,0.0545 0.81225,-0.0682 0.98085,-0.51619 0.31414,-0.83456 -0.25723,-1.29836 -2.06075,-1.67277 -4.20304,-0.87255 -7.49728,1.12352 -8.13014,4.92627 -0.46224,2.77751 1.01008,5.00569 4.40259,6.66276 1.20765,0.58988 2.5327,1.42766 2.94455,1.86175 1.63125,1.71929 0.98453,4.88572 -1.20042,5.87737 -1.38918,0.63049 -2.33208,0.65413 -4.18169,0.10485 -1.32234,-0.39269 -1.44505,-0.39083 -1.75021,0.0265 -0.18575,0.25403 -0.46564,0.36383 -0.64495,0.25301 -0.56981,-0.35216 -6.37261,-9.42653 -6.24337,-9.76332 0.0693,-0.18046 1.51372,-2.21456 3.20994,-4.52022 3.83013,-5.20626 3.76829,-5.09539 2.95593,-5.29928 -1.73531,-0.43553 -1.94611,-0.25284 -5.32775,4.61739 -1.75793,2.53178 -3.31091,4.61538 -3.45106,4.63021 -0.15188,0.0161 -0.28423,-1.78552 -0.32761,-4.45943 -0.0516,-3.18315 -0.16694,-4.54622 -0.39688,-4.69231 -0.52752,-0.33514 -1.95527,-0.24269 -2.27916,0.14758 -0.21518,0.25927 -0.28049,3.30997 -0.23084,10.78177 l 0.0693,10.4202 h 1.32292 1.32292 l 0.13229,-5.15938 c 0.0728,-2.83765 0.23176,-5.15937 0.35333,-5.15937 0.12157,0 1.65127,2.26218 3.39935,5.02708 1.74807,2.7649 3.31547,5.12258 3.48313,5.2393 0.16765,0.11672 1.07872,0.16762 2.02461,0.11311 0.94588,-0.0545 2.01744,-0.013 2.38125,0.0921 1.06041,0.30659 3.95084,0.2706 5.06453,-0.0631 z m -36.08531,-0.28825 c 0.14566,-0.1819 0.9993,-3.36682 1.89696,-7.0776 2.12173,-8.77091 2.12187,-8.77141 2.39167,-8.60466 0.12686,0.0784 0.65931,1.95723 1.18321,4.17517 0.52391,2.21793 1.33146,5.63995 1.79457,7.60449 0.4631,1.96453 0.95171,3.7207 1.08579,3.9026 0.13408,0.1819 0.69088,0.33073 1.23733,0.33073 0.54644,0 1.1088,-0.14883 1.24968,-0.33073 0.14088,-0.1819 1.06437,-3.84307 2.0522,-8.13594 0.98782,-4.29286 2.0356,-8.83492 2.3284,-10.09346 0.29279,-1.25854 0.45918,-2.47893 0.36975,-2.71198 -0.17691,-0.46104 -1.39013,-0.57028 -2.00565,-0.18058 -0.22778,0.14421 -0.86551,2.57086 -1.65034,6.2798 -1.91981,9.07268 -2.11296,9.88122 -2.36041,9.88122 -0.2578,0 -0.32307,-0.23381 -1.8465,-6.61458 -2.37028,-9.92777 -2.19548,-9.36495 -2.99604,-9.64649 -0.4817,-0.16941 -0.87252,-0.16218 -1.16372,0.0215 -0.30881,0.19479 -1.00398,2.64483 -2.35101,8.28588 -1.05191,4.40513 -1.97941,8.07618 -2.06113,8.15789 -0.0817,0.0817 -0.21384,0.0833 -0.29362,0.004 -0.0798,-0.0798 -0.85575,-3.75504 -1.72438,-8.16726 -0.87243,-4.43147 -1.72532,-8.11493 -1.90547,-8.22937 -0.58415,-0.37105 -2.31561,-0.24525 -2.47884,0.1801 -0.0834,0.21745 0.16695,1.73549 0.55644,3.37344 0.38948,1.63794 1.47234,6.23199 2.40635,10.20899 0.93402,3.97701 1.76595,7.34052 1.84874,7.47448 0.22416,0.36271 2.13038,0.29449 2.43602,-0.0872 z m -37.61875,13.27959 c -0.28012,-0.28239 -0.39918,-0.50966 -0.26458,-0.50503 0.31155,0.0107 1.17077,0.65702 1.17077,0.88065 0,0.30704 -0.38893,0.14582 -0.90619,-0.37562 z m 83.45619,-2.51629 c 0,-0.22845 0.34168,-0.91306 0.75929,-1.52136 1.17617,-1.71324 3.06144,-5.64598 3.82792,-7.98517 1.08019,-3.29656 1.53032,-5.80486 1.68557,-9.39271 0.37017,-8.55457 -2.5694,-17.235 -8.03342,-23.7224 -0.63238,-0.75082 -1.14977,-1.49496 -1.14977,-1.65365 0,-0.20114 2.14691,-0.28853 7.08816,-0.28853 7.52456,0 8.90127,0.16662 11.2423,1.36064 1.83936,0.93816 4.46981,3.79537 5.5677,6.04769 1.83348,3.76141 1.89871,4.2795 1.89871,15.08125 0,8.53898 -0.0558,9.85645 -0.48228,11.37709 -1.57956,5.63259 -5.10531,9.48661 -9.83647,10.7523 -0.90574,0.24231 -3.09589,0.35491 -6.94531,0.35705 -4.93378,0.003 -5.6224,-0.0477 -5.6224,-0.4122 z"
         id="path6072"
         inkscape:connector-curvature="0" />
      <path
         style="fill:#54aecf;stroke-width:0.26458332"
         d="m 390.72856,-112.74793 c -0.3776,-0.3776 -0.40257,-1.53475 -0.0409,-1.89639 0.21655,-0.21656 1.74329,1.44429 1.74329,1.89642 0,0.55128 -1.15108,0.55126 -1.70237,-3e-5 z m -2.46481,-1.28531 c -0.94913,-0.80104 -1.05066,-1.07804 -0.47595,-1.29857 0.60513,-0.23221 1.53361,0.67712 1.42774,1.3983 l -0.0919,0.626 z m 48.22031,-11.13054 c -6.99052,-1.12879 -13.29719,-4.47247 -18.25916,-9.68068 -13.30443,-13.96466 -11.33367,-36.22403 4.24446,-47.94034 12.24108,-9.20652 29.89866,-8.09596 41.11029,2.58559 10.11269,9.63457 12.89982,24.56828 6.92115,37.08409 -1.62333,3.39829 -3.17091,5.61254 -5.94093,8.50019 -4.37177,4.55741 -9.27928,7.36447 -15.64039,8.94619 -3.40641,0.84702 -8.92843,1.07125 -12.43542,0.50496 z m 23.71766,-21.86979 c 1.36939,-0.41028 3.09675,-1.92887 3.69684,-3.25005 0.66473,-1.46346 0.66186,-4.08494 -0.006,-5.38312 -0.75314,-1.46419 -1.74239,-2.27264 -4.50223,-3.67936 -2.06288,-1.05148 -2.58207,-1.44348 -3.00568,-2.26935 -0.74322,-1.44899 -0.44332,-3.16613 0.76376,-4.37322 0.98618,-0.98617 0.648,-0.9525 5.2306,-0.52085 0.57894,0.0545 0.81225,-0.0682 0.98085,-0.51619 0.31414,-0.83456 -0.25723,-1.29836 -2.06075,-1.67277 -4.20304,-0.87255 -7.49728,1.12352 -8.13014,4.92627 -0.46224,2.77751 1.01008,5.00569 4.40259,6.66276 1.20765,0.58988 2.5327,1.42766 2.94455,1.86175 1.63125,1.71929 0.98453,4.88572 -1.20042,5.87737 -1.38918,0.63049 -2.33208,0.65413 -4.18169,0.10485 -1.32234,-0.39269 -1.44505,-0.39083 -1.75021,0.0265 -0.18575,0.25403 -0.46564,0.36383 -0.64495,0.25301 -0.56981,-0.35216 -6.37261,-9.42653 -6.24337,-9.76332 0.0693,-0.18046 1.51372,-2.21456 3.20994,-4.52022 3.83013,-5.20626 3.76829,-5.09539 2.95593,-5.29928 -1.73531,-0.43553 -1.94611,-0.25284 -5.32775,4.61739 -1.75793,2.53178 -3.31091,4.61538 -3.45106,4.63021 -0.15188,0.0161 -0.28423,-1.78552 -0.32761,-4.45943 -0.0516,-3.18315 -0.16694,-4.54622 -0.39688,-4.69231 -0.52752,-0.33514 -1.95527,-0.24269 -2.27916,0.14758 -0.21518,0.25927 -0.28049,3.30997 -0.23084,10.78177 l 0.0693,10.4202 h 1.32292 1.32292 l 0.13229,-5.15938 c 0.0728,-2.83765 0.23176,-5.15937 0.35333,-5.15937 0.12157,0 1.65127,2.26218 3.39935,5.02708 1.74807,2.7649 3.31547,5.12258 3.48313,5.2393 0.16765,0.11672 1.07872,0.16762 2.02461,0.11311 0.94588,-0.0545 2.01744,-0.013 2.38125,0.0921 1.06041,0.30659 3.95084,0.2706 5.06453,-0.0631 z m -36.08531,-0.28825 c 0.14566,-0.1819 0.9993,-3.36682 1.89696,-7.0776 2.12173,-8.77091 2.12187,-8.77141 2.39167,-8.60466 0.12686,0.0784 0.65931,1.95723 1.18321,4.17517 0.52391,2.21793 1.33146,5.63995 1.79457,7.60449 0.4631,1.96453 0.95171,3.7207 1.08579,3.9026 0.13408,0.1819 0.69088,0.33073 1.23733,0.33073 0.54644,0 1.1088,-0.14883 1.24968,-0.33073 0.14088,-0.1819 1.06437,-3.84307 2.0522,-8.13594 0.98782,-4.29286 2.0356,-8.83492 2.3284,-10.09346 0.29279,-1.25854 0.45918,-2.47893 0.36975,-2.71198 -0.17691,-0.46104 -1.39013,-0.57028 -2.00565,-0.18058 -0.22778,0.14421 -0.86551,2.57086 -1.65034,6.2798 -1.91981,9.07268 -2.11296,9.88122 -2.36041,9.88122 -0.2578,0 -0.32307,-0.23381 -1.8465,-6.61458 -2.37028,-9.92777 -2.19548,-9.36495 -2.99604,-9.64649 -0.4817,-0.16941 -0.87252,-0.16218 -1.16372,0.0215 -0.30881,0.19479 -1.00398,2.64483 -2.35101,8.28588 -1.05191,4.40513 -1.97941,8.07618 -2.06113,8.15789 -0.0817,0.0817 -0.21384,0.0833 -0.29362,0.004 -0.0798,-0.0798 -0.85575,-3.75504 -1.72438,-8.16726 -0.87243,-4.43147 -1.72532,-8.11493 -1.90547,-8.22937 -0.58415,-0.37105 -2.31561,-0.24525 -2.47884,0.1801 -0.0834,0.21745 0.16695,1.73549 0.55644,3.37344 0.38948,1.63794 1.47234,6.23199 2.40635,10.20899 0.93402,3.97701 1.76595,7.34052 1.84874,7.47448 0.22416,0.36271 2.13038,0.29449 2.43602,-0.0872 z m -49.6936,21.00811 c -0.50126,-0.4059 -0.62692,-0.83287 -0.75881,-2.57827 -0.0869,-1.1505 -0.25296,-2.24097 -0.36892,-2.42327 -0.11596,-0.18229 -0.30771,-0.89666 -0.4261,-1.5875 -0.11839,-0.69083 -0.39372,-1.67277 -0.61184,-2.18209 -0.33421,-0.78039 -0.34261,-1.0717 -0.0534,-1.85208 0.30413,-0.82065 0.34592,-0.85076 0.36717,-0.26459 0.0369,1.01906 0.78767,3.00415 1.2774,3.3777 0.37403,0.28531 0.39216,0.45953 0.12221,1.17471 -0.28342,0.75087 -0.25509,0.89739 0.26782,1.3848 0.39858,0.37154 0.96592,0.55355 1.78191,0.57167 1.72954,0.0384 3.35428,0.93744 3.58396,1.98315 0.29922,1.36235 -0.60714,2.57453 -1.36119,1.82047 -0.18473,-0.18472 -0.4249,-0.1006 -0.75539,0.26458 -0.65841,0.72754 -0.91063,0.67481 -1.23593,-0.25833 -0.35342,-1.01384 -0.7541,-1.02214 -0.7541,-0.0156 0,1.00921 -0.32928,1.18833 -1.07479,0.58466 z m 5.47856,-9.09338 c -0.60205,-0.89311 -0.4936,-1.4276 0.18847,-0.92885 0.3037,0.22207 0.4498,0.59651 0.3907,1.00134 l -0.0944,0.64663 z m 10.52453,-1.0914 c -0.075,-0.19542 1.01721,-2.64678 2.42711,-5.44746 2.42001,-4.80719 2.67425,-5.19817 4.54325,-6.98687 1.45989,-1.39717 2.17747,-2.33078 2.73258,-3.55524 0.83497,-1.84178 0.82216,-3.23428 -0.0298,-3.23428 -0.25729,0 -0.53922,-0.18614 -0.62652,-0.41365 -0.0873,-0.2275 -0.27344,-0.34275 -0.41363,-0.25611 -0.14019,0.0866 -0.1965,0.30972 -0.12512,0.49572 0.16946,0.44162 -1.41912,2.27893 -5.03206,5.81993 -3.05572,2.99488 -4.78985,4.07442 -7.597,4.72932 -1.1602,0.27068 -1.32082,0.23699 -2.77813,-0.5826 -0.85071,-0.47844 -1.83069,-1.09156 -2.17773,-1.3625 -0.79636,-0.62171 -0.99417,-0.61845 -1.1609,0.0191 -0.12813,0.48996 -0.19823,0.49489 -1.64946,0.11592 -1.86771,-0.48772 -2.24604,-0.36115 -2.25124,0.75313 -0.006,1.37175 -0.3205,1.67593 -1.16155,1.12485 -0.97422,-0.63833 -1.12899,-0.32845 -0.58773,1.17676 0.25795,0.71732 0.42687,1.80019 0.38084,2.44139 -0.0804,1.1197 -0.11033,1.15458 -1.05896,1.23345 -1.21057,0.10065 -1.5555,-0.3756 -2.16676,-2.99159 -1.06152,-4.54304 -1.79423,-7.55187 -2.28293,-9.37481 -0.28996,-1.08157 -0.52719,-2.60344 -0.52719,-3.38194 0,-1.64266 -0.45904,-2.88407 -1.59839,-4.32262 -1.03461,-1.3063 -2.10578,-3.93008 -2.10578,-5.15802 0,-0.59371 0.23886,-1.26425 0.63806,-1.7912 0.62786,-0.82879 1.92379,-4.53224 2.54097,-7.2615 0.20845,-0.92176 0.70796,-1.89845 1.47831,-2.89051 1.15709,-1.4901 1.28833,-1.86565 1.1878,-3.39908 -0.0289,-0.44142 0.32475,-1.9297 0.78597,-3.30729 0.83624,-2.49767 2.59198,-5.19987 4.03559,-6.21101 0.71664,-0.50196 2.574,-0.50756 3.76159,-0.0113 1.09127,0.45596 1.21915,1.2785 0.36718,2.36161 -0.77811,0.9892 -0.54599,1.30285 1.00457,1.35741 0.74336,0.0262 1.71847,0.19953 2.16691,0.38528 0.71123,0.2946 0.90429,0.27459 1.51183,-0.15674 2.26127,-1.60539 3.11461,-1.95921 6.0647,-2.51464 l 3.04025,-0.5724 2.04615,0.59108 c 2.94174,0.84978 6.13023,2.90497 6.15799,3.96922 0.006,0.22743 0.28433,1.18742 0.61865,2.13331 l 0.60786,1.71979 6.39281,0.0708 c 4.3304,0.048 6.39281,0.16241 6.39281,0.35467 0,0.15611 -0.5174,0.89813 -1.14977,1.64895 -3.49263,4.14677 -6.00772,9.2984 -7.3691,15.094 -0.77449,3.29715 -0.84105,10.60048 -0.1263,13.85873 0.92498,4.21659 3.0419,9.37924 5.04768,12.31007 1.28874,1.88309 1.93728,1.77419 -10.56602,1.77419 -9.17367,0 -11.27829,-0.0657 -11.38944,-0.35532 z m -17.69845,-8.04521 c -0.10191,-0.83674 -0.43804,-2.05713 -0.74696,-2.71197 l -0.56166,-1.19063 -0.0944,1.01065 c -0.0519,0.55586 0.0189,1.15117 0.15739,1.32292 0.13846,0.17174 0.33847,0.84805 0.44447,1.50289 0.22118,1.36637 0.31965,1.5875 0.70695,1.5875 0.1853,0 0.21703,-0.51258 0.0942,-1.52136 z m 7.40499,-5.12689 c 0.29784,-2.16554 -0.32146,-5.007 -1.35778,-6.22976 -0.70804,-0.83542 -0.93945,-0.96322 -1.32239,-0.73033 -0.75631,0.45996 -1.11939,1.93794 -1.14079,4.64381 l -0.0201,2.54485 1.09716,0.14716 c 0.60344,0.0809 1.33851,0.38851 1.63349,0.68349 0.29498,0.29498 0.62354,0.48243 0.73014,0.41655 0.10659,-0.0659 0.27773,-0.72998 0.3803,-1.47577 z m 12.32922,-2.14915 c 0.75541,-0.61846 1.50401,-1.33722 1.66356,-1.59724 0.15955,-0.26002 0.8739,-1.09346 1.58746,-1.85208 1.15062,-1.22331 2.76824,-4.01649 2.48823,-4.2965 -0.0578,-0.0578 -1.03951,1.19994 -2.1815,2.79507 -1.29926,1.81482 -2.25146,2.90023 -2.5443,2.90023 -0.25738,0 -0.77691,0.38696 -1.1545,0.8599 -0.3776,0.47294 -0.92396,1.10221 -1.21415,1.39837 -0.29019,0.29615 -0.52761,0.62358 -0.52761,0.7276 0,0.42013 0.5778,0.13309 1.88281,-0.93535 z m -3.89266,-1.01959 c 0.31805,-0.30611 1.10893,-0.7526 1.7575,-0.99218 1.44939,-0.53542 3.42735,-1.84935 3.42735,-2.27674 0,-0.17358 0.30788,-0.60424 0.68417,-0.95703 0.37629,-0.35279 1.23314,-1.46657 1.9041,-2.47506 0.67097,-1.00849 1.67278,-2.24274 2.22625,-2.74277 0.78797,-0.71188 1.00631,-1.10339 1.00631,-1.80439 0,-0.57246 0.128,-0.89526 0.355,-0.89526 0.33891,0 0.71684,-0.97845 1.09861,-2.84427 0.21329,-1.04244 -0.19797,-1.1424 -0.81648,-0.19844 -0.57676,0.88026 -1.05408,0.83487 -1.39123,-0.13229 -0.15219,-0.43656 -0.35776,-0.79375 -0.45684,-0.79375 -0.0991,0 -0.64139,0.41672 -1.20515,0.92604 -0.82475,0.74512 -1.23968,0.92605 -2.12376,0.92605 -1.53318,0 -2.47205,-0.80185 -4.56982,-3.90291 -2.68176,-3.96433 -3.10212,-6.15126 -1.18237,-6.15126 0.44101,0 1.00236,0.10259 1.24746,0.22798 0.24509,0.12539 0.75946,0.30284 1.14304,0.39434 0.55906,0.13335 0.72575,0.058 0.8403,-0.38007 0.11922,-0.45591 0.23091,-0.49932 0.67426,-0.26205 0.65644,0.35132 0.83073,0.35706 0.83073,0.0274 0,-0.14136 -0.38695,-0.36229 -0.85989,-0.49097 -0.55535,-0.1511 -0.81798,-0.36462 -0.74153,-0.60288 0.0651,-0.2029 0.12463,-0.76107 0.13229,-1.24038 0.0165,-1.03395 0.21767,-1.10579 3.37,-1.20368 1.48566,-0.0461 2.60882,0.66561 2.95496,1.87256 0.18645,0.6501 0.0999,1.02384 -0.45714,1.97438 -0.73317,1.25107 -0.59666,1.80008 0.44759,1.80008 0.56267,0 0.56351,-0.006 -0.3459,2.51354 -0.31513,0.87312 -0.92085,1.95035 -1.34604,2.39384 -0.94307,0.98365 -0.96261,1.17803 -0.11842,1.17803 0.45627,0 0.77611,-0.23484 1.05541,-0.77496 0.22041,-0.42623 0.65202,-0.81319 0.95913,-0.8599 0.37711,-0.0574 0.67137,-0.41518 0.90641,-1.1022 0.19141,-0.5595 0.58678,-1.27388 0.87859,-1.5875 0.29181,-0.31363 0.73031,-1.10601 0.97444,-1.76085 0.24414,-0.65485 0.68281,-1.77738 0.97483,-2.49452 0.51614,-1.26753 0.51802,-1.34657 0.0674,-2.83481 -0.25494,-0.84201 -0.74862,-1.79876 -1.09706,-2.12611 l -0.63355,-0.59518 -0.60275,0.75593 c -0.53481,0.67071 -0.69015,0.72681 -1.37795,0.49765 -1.03755,-0.34568 -1.09299,-0.91679 -0.14345,-1.4777 0.60138,-0.35524 0.93729,-0.40014 1.47221,-0.19676 0.98166,0.37322 1.16166,-0.28126 0.36915,-1.34226 -1.36028,-1.82113 -2.54509,-2.88624 -3.21059,-2.88624 -1.02099,0 -2.17479,2.08813 -2.10788,3.81482 0.0587,1.51447 -0.30979,1.35972 -0.67772,-0.28463 -0.34619,-1.54718 -2.0467,-3.53019 -3.02727,-3.53019 -0.79565,0 -2.04861,1.02267 -2.04861,1.67208 0,0.20527 -0.24677,0.68693 -0.54837,1.07036 l -0.54837,0.69714 h 1.14639 c 0.86681,0 1.32661,0.16712 1.8854,0.68525 0.90742,0.84142 0.81271,1.22475 -0.36733,1.4867 -1.17256,0.26028 -1.95605,0.0738 -2.60185,-0.61942 -0.4548,-0.48818 -0.62562,-0.52078 -1.36972,-0.26138 -0.46756,0.16299 -1.12726,0.29635 -1.46599,0.29635 -0.89341,0 -1.43154,1.0132 -1.75234,3.29936 -0.24703,1.76041 -0.22145,2.12185 0.22051,3.11632 0.27498,0.61872 0.99945,1.66444 1.60995,2.32382 0.6105,0.65938 1.35492,1.85001 1.65427,2.64583 0.39941,1.06181 0.87167,1.71106 1.77423,2.43915 0.67647,0.5457 1.41594,0.99219 1.64325,0.99219 0.30547,0 0.33586,0.0774 0.11648,0.29682 -0.16325,0.16325 -0.23404,0.46045 -0.1573,0.66043 0.10605,0.27636 -0.0452,0.32665 -0.63039,0.20961 -0.51881,-0.10376 -1.13196,0.0347 -1.87999,0.42463 -1.08943,0.56784 -1.49557,1.31892 -0.7132,1.31892 0.28317,0 0.39687,0.28814 0.39687,1.00573 0,1.33413 1.74194,4.06652 2.89766,4.54524 1.04077,0.4311 1.20303,0.70489 0.70998,1.19794 -0.55332,0.55333 -0.65632,0.51837 -1.75995,-0.59735 -1.92861,-1.94971 -3.36827,-2.66866 -3.83421,-1.91475 -0.29922,0.48414 0.66127,3.15046 1.4644,4.06517 0.63127,0.71897 0.7867,1.13906 0.7867,2.12615 0,0.81967 -0.1256,1.27835 -0.37641,1.37459 -0.46597,0.17881 -0.77039,0.89728 -0.38018,0.89728 0.15683,0 0.54536,-0.25045 0.86341,-0.55657 z m 5.80967,-8.57163 c -0.0751,-0.19574 0.081,-0.58968 0.34691,-0.87542 0.26592,-0.28575 0.95078,-1.18792 1.52193,-2.00483 0.57115,-0.81691 1.20737,-1.4853 1.41383,-1.4853 0.20646,0 0.43765,-0.23812 0.51376,-0.52916 0.19973,-0.76374 0.55606,-0.65265 0.40704,0.12689 -0.069,0.36083 -0.51533,1.06949 -0.99189,1.57479 -0.47656,0.5053 -1.12245,1.44751 -1.43531,2.0938 -0.57442,1.18658 -1.51855,1.77085 -1.77627,1.09923 z m 0.6981,-20.22493 c 0,-0.28246 0.10659,-0.57943 0.23686,-0.65994 0.28432,-0.17572 0.62115,0.59088 0.40984,0.93278 -0.26068,0.42178 -0.6467,0.25892 -0.6467,-0.27284 z m -10.51882,27.72891 c -0.23613,-0.91126 -0.94635,-1.30394 -1.44908,-0.80121 -0.5054,0.5054 0.002,1.5892 0.7899,1.68613 0.94673,0.11652 0.92592,0.14446 0.65918,-0.88492 z m -1.18441,-2.23296 c 0.0804,-0.57819 -0.85074,-2.22823 -1.25747,-2.22823 -0.14766,0 -0.26847,0.39022 -0.26847,0.86717 0,1.53398 1.3361,2.72571 1.52594,1.36106 z m 16.8626,-1.65497 c 0,-0.47854 -0.51787,-0.39118 -0.62058,0.10469 -0.0571,0.27588 0.042,0.39684 0.26459,0.32265 0.19579,-0.0653 0.35599,-0.25757 0.35599,-0.42734 z m 0.39688,-1.64721 c 0,-0.13694 -0.11906,-0.24897 -0.26459,-0.24897 -0.14552,0 -0.26458,0.18562 -0.26458,0.41249 0,0.22687 0.11906,0.3389 0.26458,0.24897 0.14553,-0.0899 0.26459,-0.27556 0.26459,-0.41249 z m -6.43475,-10.63387 c -0.43211,-1.05905 -1.23817,-1.32143 -1.23817,-0.40304 0,0.74769 0.45367,1.26294 1.11201,1.26294 0.43375,0 0.44519,-0.078 0.12616,-0.8599 z m 3.47559,-3.69105 c -0.046,-0.31184 -0.23689,-0.61749 -0.4243,-0.67924 -0.296,-0.0975 -0.32482,0.78723 -0.0669,2.05519 0.0857,0.42116 0.5602,-0.90801 0.49124,-1.37595 z m -22.37944,-10.79488 c 0.18176,-0.29105 0.46916,-0.52917 0.63867,-0.52917 0.16951,0 0.80698,-0.41672 1.41659,-0.92604 0.60962,-0.50932 1.2162,-0.92604 1.34795,-0.92604 0.48946,0 0.21683,-1.0089 -0.45385,-1.67959 -0.38138,-0.38137 -0.76833,-0.65988 -0.8599,-0.61891 -1.39555,0.62441 -1.75817,0.99522 -2.59151,2.65 -0.5045,1.00181 -0.85361,1.98739 -0.77579,2.19019 0.20624,0.53745 0.89609,0.45084 1.27784,-0.16044 z m 94.65943,48.0034 c 0,-0.22845 0.34168,-0.91306 0.75929,-1.52136 1.17617,-1.71324 3.06144,-5.64598 3.82792,-7.98517 1.08019,-3.29656 1.53032,-5.80486 1.68557,-9.39271 0.37017,-8.55457 -2.5694,-17.235 -8.03342,-23.7224 -0.63238,-0.75082 -1.14977,-1.49496 -1.14977,-1.65365 0,-0.20114 2.14691,-0.28853 7.08816,-0.28853 7.52456,0 8.90127,0.16662 11.2423,1.36064 1.83936,0.93816 4.46981,3.79537 5.5677,6.04769 1.83348,3.76141 1.89871,4.2795 1.89871,15.08125 0,8.53898 -0.0558,9.85645 -0.48228,11.37709 -1.57956,5.63259 -5.10531,9.48661 -9.83647,10.7523 -0.90574,0.24231 -3.09589,0.35491 -6.94531,0.35705 -4.93378,0.003 -5.6224,-0.0477 -5.6224,-0.4122 z m -84.99814,-0.70913 c -0.061,-0.1819 0.10317,-0.80698 0.36492,-1.38907 0.32243,-0.71703 0.42553,-1.3783 0.3197,-2.05052 -0.1335,-0.84801 -0.084,-0.99341 0.34064,-1.0006 0.76606,-0.013 1.28573,-0.53227 2.05825,-2.05676 0.68136,-1.3446 1.16533,-1.7926 1.72612,-1.5978 0.30512,0.10598 -1.3625,3.95127 -2.21965,5.11818 -0.32068,0.43657 -0.91181,1.3593 -1.31363,2.05052 -0.74265,1.27755 -1.07699,1.52012 -1.27635,0.92605 z m 0.33147,-5.77031 c 0,-0.29963 0.11907,-0.47119 0.26459,-0.38126 0.14552,0.0899 0.26458,0.33509 0.26458,0.54479 0,0.20969 -0.11906,0.38126 -0.26458,0.38126 -0.14552,0 -0.26459,-0.24516 -0.26459,-0.54479 z"
         id="path6070"
         inkscape:connector-curvature="0" />
      <path
         style="fill:#8f8778;stroke-width:0.26458332"
         d="m 390.72856,-112.74793 c -0.3776,-0.3776 -0.40257,-1.53475 -0.0409,-1.89639 0.21655,-0.21656 1.74329,1.44429 1.74329,1.89642 0,0.55128 -1.15108,0.55126 -1.70237,-3e-5 z m -2.46481,-1.28531 c -0.94913,-0.80104 -1.05066,-1.07804 -0.47595,-1.29857 0.60513,-0.23221 1.53361,0.67712 1.42774,1.3983 l -0.0919,0.626 z m 49.27864,-11.27975 c -13.55499,-1.84839 -24.28101,-11.73145 -27.16251,-25.02781 -0.74217,-3.42465 -0.79615,-9.20103 -0.11829,-12.65758 1.39757,-7.12647 5.54255,-14.0838 10.98482,-18.43797 4.12528,-3.3005 8.89479,-5.60085 13.75602,-6.63457 3.59043,-0.76349 9.49109,-0.76333 13.04703,3.7e-4 6.73419,1.44626 13.67757,5.5928 17.75633,10.60399 1.51378,1.85983 3.7298,5.31735 3.53372,5.51343 -0.0633,0.0633 -0.41796,-0.39627 -0.7881,-1.02131 -0.67636,-1.14215 -1.6587,-1.77181 -4.68297,-3.00169 -1.62993,-0.66284 -1.88883,-0.89655 -1.71207,-1.54553 0.14277,-0.52419 0.12892,-0.52934 -0.22879,-0.0851 -0.35921,0.44605 -0.44252,0.44809 -1.47213,0.0361 -0.60025,-0.24018 -1.34121,-0.37135 -1.64656,-0.2915 -0.39163,0.10241 -0.59236,0.003 -0.68131,-0.33708 -0.14498,-0.55437 -1.98807,-1.47222 -2.53493,-1.26237 -0.20171,0.0774 -0.70198,0.80331 -1.11171,1.61313 -0.61618,1.21785 -0.68686,1.54242 -0.40884,1.87741 0.18487,0.22276 0.50805,0.40501 0.71818,0.40501 0.78582,0 0.27211,1.409 -0.72106,1.97774 -1.97915,1.13333 -2.10259,1.28423 -1.92845,2.35731 l 0.16073,0.99044 2.41003,-0.0457 c 1.32552,-0.0251 3.38323,-0.14543 4.57271,-0.26733 2.00024,-0.20498 2.26345,-0.17301 3.50443,0.42566 0.73796,0.35601 1.45834,0.64729 1.60084,0.64729 0.1425,0 0.43916,0.34822 0.65925,0.77383 0.37852,0.73198 0.35385,0.87448 -0.45623,2.63523 -0.80579,1.75143 -0.90809,1.86204 -1.73141,1.87201 -0.48126,0.006 -1.38959,-0.11898 -2.01851,-0.27734 -2.37743,-0.59864 -3.72794,1.17555 -2.0674,2.716 0.40018,0.37124 1.46477,1.06124 2.36576,1.53332 2.72825,1.42949 4.35817,3.42457 4.73792,5.79933 l 0.17238,1.07803 0.79139,-0.45844 c 0.94001,-0.54454 2.05286,-1.91818 2.05286,-2.53394 0,-0.3228 -0.23952,-0.43804 -0.91043,-0.43804 -1.4739,0 -1.31077,-0.42015 0.40622,-1.0462 1.97052,-0.71849 3.44329,-1.9303 2.95161,-2.42861 -0.53635,-0.54359 -0.38976,-0.68059 0.66007,-0.61685 0.94716,0.0575 1.00029,0.11107 1.2064,1.21601 0.11859,0.63572 0.14192,2.55292 0.0519,4.26044 -0.42542,8.06508 -3.68738,15.41987 -9.33826,21.05514 -1.5786,1.57424 -1.78366,1.70377 -1.85888,1.17413 -0.10389,-0.73146 -0.21376,-0.7339 -1.81175,-0.0403 -1.5779,0.68491 -3.46839,1.22958 -5.37975,1.54997 -3.18761,0.53432 -6.7984,1.41854 -7.72852,1.89259 -0.53991,0.27517 -1.16498,0.50031 -1.38906,0.50031 -0.22408,0 -0.40742,0.22355 -0.40742,0.49677 0,0.99097 -0.64151,1.17556 -3.51209,1.01057 -1.85828,-0.1068 -3.28565,-0.35811 -4.5577,-0.80246 -1.01865,-0.35583 -1.90368,-0.59848 -1.96674,-0.53922 -0.27882,0.26202 0.54822,0.66942 2.24766,1.1072 1.72906,0.44542 1.83094,0.51335 1.75311,1.16884 -0.0764,0.64375 0.0113,0.71002 1.16964,0.88372 3.32242,0.49823 9.40568,-0.50167 13.79581,-2.26761 1.34607,-0.54146 2.4474,-0.9337 2.4474,-0.87163 0,0.18001 -3.68538,1.81235 -5.42396,2.40239 -3.83777,1.30247 -9.83962,1.89681 -13.75834,1.36245 z m -7.13895,-11.21253 c 0.65204,-1.47438 1.24286,-1.9989 2.25154,-1.9989 0.34881,0 0.62522,-0.2061 0.70971,-0.52917 0.0852,-0.3257 0.3609,-0.52917 0.71708,-0.52917 0.73223,0 2.23129,-1.52716 2.49161,-2.53833 0.15393,-0.59792 0.5324,-0.92955 1.70152,-1.49096 1.90299,-0.9138 2.10177,-1.50747 1.14658,-3.4243 -0.37865,-0.75985 -0.68846,-1.64881 -0.68846,-1.97545 0,-1.38771 -0.98473,-1.00186 -1.56932,0.61491 -0.86587,2.3947 -2.46814,3.37356 -4.51719,2.75965 -0.87423,-0.26193 -1.16712,-0.53518 -1.67556,-1.56324 -0.33888,-0.6852 -0.7692,-1.96019 -0.95627,-2.83332 -0.41934,-1.95719 -1.21178,-3.57187 -1.75296,-3.57187 -0.59811,0 -1.42959,2.11058 -1.61541,4.10049 l -0.16184,1.73314 1.24523,1.14325 1.24523,1.14324 -0.23921,3.28213 c -0.38758,5.31781 -0.37407,6.09273 0.11565,6.63386 0.66277,0.73236 0.85881,0.61161 1.55207,-0.95596 z m 30.93516,-5.7259 c 0.37276,-0.56329 0.67775,-1.13964 0.67775,-1.28078 0,-0.14115 0.29766,-0.5778 0.66146,-0.97035 0.70899,-0.76502 0.78884,-1.08392 0.41803,-1.66963 -0.19625,-0.30998 -0.44825,-0.27037 -1.51731,0.23849 -0.70508,0.3356 -1.99634,0.68147 -2.86947,0.76858 l -1.5875,0.15839 0.0413,1.32292 c 0.0523,1.67533 0.35216,3.12569 0.69139,3.34435 0.55526,0.35791 2.79582,-0.87157 3.48433,-1.91197 z m 6.47376,-5.45664 c 0.61974,-1.58819 0.39649,-1.9619 -0.55395,-0.92727 -0.82778,0.90111 -1.38728,2.28852 -1.16084,2.8786 0.15895,0.41422 0.21277,0.40932 0.67482,-0.0614 0.27615,-0.28133 0.74414,-1.1318 1.03997,-1.88994 z m -7.58863,1.23407 c 1.38643,-0.38505 3.13724,-1.79708 3.86927,-3.12057 0.67532,-1.22097 1.0139,-3.62944 0.72597,-5.16423 -0.0971,-0.51756 -0.64866,-1.53831 -1.22571,-2.26833 -0.85072,-1.07624 -1.51197,-1.54816 -3.49585,-2.49492 -3.11144,-1.48485 -3.50921,-1.91425 -3.49103,-3.76858 0.0254,-2.58826 1.69411,-3.76463 4.30154,-3.03236 2.42119,0.67996 2.37357,0.68559 2.86161,-0.33784 0.59217,-1.2418 0.28773,-1.60021 -1.94504,-2.28985 -2.13031,-0.65798 -3.14853,-0.66607 -4.80115,-0.0381 -2.9789,1.13189 -4.37635,3.09137 -4.37635,6.13642 0,3.00356 1.33974,4.61822 5.448,6.56592 2.17516,1.03124 3.00375,2.15112 2.78704,3.76682 -0.18686,1.39311 -0.82541,2.31497 -1.92047,2.77251 -1.1697,0.48874 -3.06691,0.47727 -4.27095,-0.0258 -0.86453,-0.36122 -1.00453,-0.35916 -1.42453,0.0209 -0.43513,0.39379 -0.55164,0.29395 -1.77094,-1.51764 -1.1447,-1.70072 -2.29499,-3.52792 -4.07691,-6.47602 l -0.50331,-0.83271 3.14164,-4.32667 c 3.51537,-4.8414 3.79652,-5.29382 3.54081,-5.69797 -0.099,-0.15645 -0.79523,-0.36821 -1.54721,-0.47059 -1.65502,-0.22532 -1.35203,-0.51559 -4.93726,4.72991 -1.48351,2.17049 -2.80273,3.8969 -2.9316,3.83645 -0.12888,-0.0604 -0.20896,-1.74012 -0.17798,-3.73263 0.034,-2.18759 -0.0562,-3.8331 -0.22785,-4.15376 -0.25926,-0.48441 -0.54944,-0.5307 -3.30655,-0.52738 -2.00599,0.002 -3.10832,0.10912 -3.278,0.3173 -0.1406,0.17252 -0.85461,3.17116 -1.5867,6.66366 -0.73208,3.4925 -1.47181,6.70719 -1.64385,7.14375 l -0.31278,0.79375 -0.37792,-1.05833 c -0.20785,-0.58208 -1.02873,-3.79309 -1.82417,-7.13556 -0.79544,-3.34248 -1.59452,-6.21482 -1.77573,-6.38297 -0.1812,-0.16816 -0.76576,-0.37106 -1.29902,-0.4509 -1.21235,-0.18152 -1.6815,0.28702 -1.93341,1.93089 -0.17346,1.13186 -0.85986,4.14897 -2.45289,10.78177 -0.39319,1.63711 -0.78756,2.97656 -0.87637,2.97656 -0.0888,0 -0.37479,-1.22039 -0.63551,-2.71198 -0.26072,-1.49159 -0.6923,-3.66448 -0.95907,-4.82864 -0.26678,-1.16417 -0.55576,-2.65245 -0.6422,-3.3073 -0.6276,-4.75455 -0.77596,-5.02708 -2.73675,-5.02708 -2.25146,0 -2.27707,0.14594 -0.95148,5.42396 0.51167,2.03729 1.58283,6.4426 2.38036,9.78958 0.79753,3.34698 1.56487,6.35331 1.70519,6.68073 0.22009,0.51354 0.45361,0.59531 1.70001,0.59531 h 1.44487 l 0.66276,-2.18281 c 0.6204,-2.04326 1.09293,-3.96546 2.53672,-10.31904 0.58372,-2.56877 0.88028,-2.9815 1.14277,-1.59045 0.97788,5.18235 2.99022,13.51122 3.37705,13.97732 0.33939,0.40895 2.52421,0.52358 3.09313,0.1623 0.18116,-0.11504 0.63306,-1.63126 1.00423,-3.36938 1.46154,-6.84422 3.64262,-16.14551 3.87421,-16.52169 0.15097,-0.24522 0.2038,3.34385 0.13827,9.39271 -0.0583,5.38427 -0.0548,9.93841 0.008,10.12032 0.0738,0.21417 0.66244,0.33072 1.67015,0.33072 1.21334,0 1.60953,-0.102 1.79848,-0.46302 0.13328,-0.25466 0.26353,-2.42462 0.28944,-4.82214 0.0259,-2.39752 0.0825,-4.39448 0.12567,-4.43769 0.0432,-0.0432 1.44698,2.09699 3.11948,4.756 l 3.04091,4.83456 2.82552,0.16177 c 1.55404,0.089 2.90156,0.23779 2.99449,0.33073 0.26642,0.26641 3.022,0.19419 4.10899,-0.10769 z m -1.31623,-5.04513 c 0.60856,-0.73297 0.58779,-1.85657 -0.0493,-2.66648 -0.28176,-0.35821 -1.25227,-1.04569 -2.15669,-1.52774 -1.9225,-1.02468 -3.50524,-2.38693 -4.3761,-3.76647 -0.93817,-1.48614 -1.48049,-1.67309 -2.46073,-0.84827 -0.69817,0.58747 -0.81292,0.86208 -0.81292,1.94538 0,1.04281 0.16645,1.47934 0.96068,2.51951 l 0.96068,1.25817 1.30575,-0.17322 c 0.96357,-0.12782 1.57853,-0.0529 2.34661,0.28601 0.96098,0.42398 1.04086,0.54031 1.04086,1.51573 0,2.07455 1.98696,2.96798 3.24115,1.45738 z m -33.75674,-15.03198 c 0.20146,-0.78984 0.49571,-1.59199 0.65388,-1.78257 0.15817,-0.19059 0.21267,-0.54172 0.12112,-0.78029 -0.27396,-0.71394 0.34911,-1.16046 1.61928,-1.16046 0.78201,0 1.41053,-0.17926 1.85536,-0.52917 0.37,-0.29104 0.90771,-0.52917 1.1949,-0.52917 0.52257,0 0.53419,-0.40932 0.0476,-1.67732 -0.10206,-0.26598 0.10074,-0.53575 0.59481,-0.79125 0.41232,-0.21322 0.96778,-0.62867 1.23435,-0.92323 0.4736,-0.52332 0.46753,-0.5465 -0.26521,-1.01467 -0.41244,-0.26352 -0.90944,-0.69523 -1.10445,-0.95935 -0.28068,-0.38017 -0.43333,-0.41487 -0.73257,-0.16652 -0.29839,0.24764 -0.49343,0.20925 -0.9261,-0.18232 -0.5362,-0.48525 -0.5562,-0.48495 -0.92108,0.0141 -0.20513,0.28054 -0.37297,0.78094 -0.37297,1.11199 0,0.33105 -0.19481,1.01042 -0.43291,1.50972 l -0.4329,0.90781 -0.89001,-0.89002 c -0.48951,-0.4895 -0.89002,-1.08197 -0.89002,-1.31659 0,-0.23462 0.53578,-0.96236 1.19063,-1.61721 0.65484,-0.65484 1.19062,-1.27174 1.19062,-1.37088 0,-0.36233 -1.35577,-1.63005 -1.74327,-1.63005 -0.21942,0 -0.54918,0.35733 -0.73282,0.79406 l -0.33388,0.79406 -0.57036,-0.53137 c -0.3137,-0.29225 -0.50677,-0.69707 -0.42906,-0.89959 0.30665,-0.7991 -0.42862,-0.62756 -1.72113,0.40155 -1.5351,1.22227 -1.97834,1.88273 -1.74882,2.60588 0.17981,0.56656 -1.46244,4.21478 -2.42565,5.38852 -0.33757,0.41135 -0.61376,0.98636 -0.61376,1.2778 0,0.43948 0.12414,0.50327 0.72761,0.37391 0.91333,-0.1958 2.27631,0.59605 2.79462,1.62358 0.20511,0.40662 0.45337,1.26373 0.55168,1.9047 0.0983,0.64096 0.24459,1.27189 0.32504,1.40207 0.0804,0.13017 0.74767,0.20106 1.48272,0.15752 l 1.33643,-0.0791 z m 25.48851,-3.72332 c 0,-0.14552 -0.11906,-0.26459 -0.26458,-0.26459 -0.14553,0 -0.26459,0.11907 -0.26459,0.26459 0,0.14552 0.11906,0.26458 0.26459,0.26458 0.14552,0 0.26458,-0.11906 0.26458,-0.26458 z m 2.38125,-3.12443 c 0,-0.11771 -0.17481,-0.44513 -0.38846,-0.72761 -0.21365,-0.28247 -0.39225,-0.77445 -0.39688,-1.09329 -0.0133,-0.91547 -0.4808,-0.97395 -1.33569,-0.16707 -0.92507,0.87312 -0.98663,1.14365 -0.26022,1.14365 0.29104,0 0.52917,-0.11907 0.52917,-0.26459 0,-0.14552 0.13196,-0.26458 0.29326,-0.26458 0.17577,0 0.2307,0.24929 0.13711,0.62218 -0.0859,0.3422 -0.079,0.69938 0.0154,0.79375 0.24681,0.24682 1.40628,0.21183 1.40628,-0.0424 z m -18.43494,-0.75383 c 0.27177,-0.27177 -0.35996,-0.88424 -0.91204,-0.88424 -0.32038,0 -0.49677,0.18789 -0.49677,0.52916 0,0.37798 0.17639,0.52917 0.61736,0.52917 0.33955,0 0.6957,-0.0783 0.79145,-0.17409 z m 2.82452,-3.53008 c 0.31086,-0.43656 0.66177,-0.79375 0.7798,-0.79375 0.11802,0 0.89417,-0.31112 1.72476,-0.69138 1.08729,-0.49777 1.42965,-0.77191 1.2226,-0.97896 -0.15816,-0.15816 -0.28817,-0.47212 -0.28889,-0.69768 -7.9e-4,-0.22556 -0.27154,-0.74778 -0.60182,-1.16051 -0.47241,-0.59034 -0.82485,-0.75363 -1.65233,-0.76555 -1.21632,-0.0175 -3.001,0.4213 -4.16811,1.02484 -0.80224,0.41485 -0.80546,0.42484 -0.27515,0.85232 0.75819,0.61118 0.93955,1.3134 0.50092,1.93963 -0.66139,0.94427 0.13518,2.06479 1.46786,2.06479 0.50375,0 0.89774,-0.24235 1.29036,-0.79375 z m -4.38063,-1.38179 c 0.62875,-0.89765 0.5217,-1.08686 -0.95483,-1.68764 -1.10727,-0.45054 -1.50884,-0.50206 -2.11882,-0.27182 -0.86327,0.32585 -0.84473,0.86029 0.0264,0.76159 0.84522,-0.0958 1.61936,0.38762 1.42634,0.89061 -0.16147,0.42079 0.30247,0.88367 0.8933,0.89125 0.17365,0.002 0.50107,-0.26056 0.7276,-0.58399 z m 11.98873,-0.13956 c 0.0683,-0.20734 -0.14608,-0.33073 -0.57459,-0.33073 -0.44463,0 -0.68351,0.14513 -0.68351,0.41528 0,0.49758 1.09052,0.42429 1.2581,-0.0845 z m -70.59539,52.8904 c -0.50126,-0.4059 -0.62692,-0.83287 -0.75881,-2.57827 -0.0869,-1.1505 -0.25296,-2.24097 -0.36892,-2.42327 -0.11596,-0.18229 -0.30771,-0.89666 -0.4261,-1.5875 -0.11839,-0.69083 -0.39372,-1.67277 -0.61184,-2.18209 -0.33421,-0.78039 -0.34261,-1.0717 -0.0534,-1.85208 0.30413,-0.82065 0.34592,-0.85076 0.36717,-0.26459 0.0369,1.01906 0.78767,3.00415 1.2774,3.3777 0.37403,0.28531 0.39216,0.45953 0.12221,1.17471 -0.28342,0.75087 -0.25509,0.89739 0.26782,1.3848 0.39858,0.37154 0.96592,0.55355 1.78191,0.57167 1.72954,0.0384 3.35428,0.93744 3.58396,1.98315 0.29922,1.36235 -0.60714,2.57453 -1.36119,1.82047 -0.18473,-0.18472 -0.4249,-0.1006 -0.75539,0.26458 -0.65841,0.72754 -0.91063,0.67481 -1.23593,-0.25833 -0.35342,-1.01384 -0.7541,-1.02214 -0.7541,-0.0156 0,1.00921 -0.32928,1.18833 -1.07479,0.58466 z m 5.47856,-9.09338 c -0.60205,-0.89311 -0.4936,-1.4276 0.18847,-0.92885 0.3037,0.22207 0.4498,0.59651 0.3907,1.00134 l -0.0944,0.64663 z m 11.06178,-1.72827 c 0.0974,-0.40018 0.44315,-1.14433 0.76836,-1.65365 0.3252,-0.50932 0.92757,-1.69995 1.33861,-2.64583 1.51047,-3.47597 2.75357,-5.4044 4.77139,-7.40187 1.6255,-1.60909 2.14896,-2.34038 2.80735,-3.92188 0.4451,-1.0692 0.7565,-2.14367 0.69199,-2.38772 -0.10543,-0.39891 -0.12038,-0.39696 -0.14797,0.0193 -0.0427,0.64471 -0.55986,0.58361 -0.55986,-0.0661 0,-0.34281 -0.17639,-0.52917 -0.50086,-0.52917 -0.27547,0 -0.57229,-0.18614 -0.65959,-0.41364 -0.0873,-0.22751 -0.27344,-0.34276 -0.41363,-0.25611 -0.14019,0.0866 -0.1965,0.30971 -0.12512,0.49571 0.16946,0.44162 -1.41912,2.27893 -5.03206,5.81994 -3.05572,2.99487 -4.78985,4.07441 -7.597,4.72932 -1.1602,0.27067 -1.32082,0.23699 -2.77813,-0.58261 -0.85071,-0.47844 -1.83069,-1.09156 -2.17773,-1.3625 -0.79636,-0.62171 -0.99417,-0.61845 -1.1609,0.0191 -0.12813,0.48996 -0.19823,0.49488 -1.64946,0.11592 -1.86771,-0.48773 -2.24604,-0.36116 -2.25124,0.75313 -0.006,1.37175 -0.3205,1.67592 -1.16155,1.12485 -0.97422,-0.63834 -1.12899,-0.32846 -0.58773,1.17675 0.25795,0.71732 0.42687,1.80019 0.38084,2.44139 -0.0804,1.1197 -0.11033,1.15458 -1.05896,1.23345 -1.21057,0.10065 -1.5555,-0.3756 -2.16676,-2.99159 -1.06152,-4.54304 -1.79423,-7.55187 -2.28293,-9.37481 -0.28996,-1.08157 -0.52719,-2.60344 -0.52719,-3.38194 0,-1.64266 -0.45904,-2.88407 -1.59839,-4.32262 -1.03461,-1.3063 -2.10578,-3.93008 -2.10578,-5.15802 0,-0.59371 0.23886,-1.26425 0.63806,-1.7912 0.62786,-0.82879 1.92379,-4.53224 2.54097,-7.2615 0.20845,-0.92176 0.70796,-1.89845 1.47831,-2.89051 1.15709,-1.4901 1.28833,-1.86565 1.1878,-3.39908 -0.0289,-0.44142 0.32475,-1.9297 0.78597,-3.30729 0.83624,-2.49767 2.59198,-5.19987 4.03559,-6.21101 0.71664,-0.50196 2.574,-0.50756 3.76159,-0.0113 1.09127,0.45596 1.21915,1.2785 0.36718,2.36161 -0.77811,0.9892 -0.54599,1.30285 1.00457,1.35741 0.74336,0.0262 1.71847,0.19953 2.16691,0.38528 0.71123,0.2946 0.90429,0.27459 1.51183,-0.15674 2.26127,-1.60539 3.11461,-1.95921 6.0647,-2.51464 l 3.04025,-0.5724 2.04615,0.59108 c 2.84546,0.82197 6.1472,2.9134 6.1472,3.89382 0,0.4235 0.72503,2.60924 1.21535,3.66391 l 0.36902,0.79375 5.95469,-0.0802 c 3.27508,-0.0441 5.95469,0.0171 5.95469,0.13612 0,0.11898 -0.58196,0.93558 -1.29326,1.81466 -3.38624,4.18501 -5.68342,8.9819 -6.94586,14.50416 -0.80005,3.4996 -0.96584,9.31386 -0.36767,12.89403 0.78639,4.70667 2.63075,9.5811 5.0704,13.40044 0.48981,0.76681 0.89056,1.45142 0.89056,1.52136 0,0.0699 -4.954,0.12715 -11.00889,0.12715 h -11.00889 z m -18.2357,-7.40834 c -0.10191,-0.83674 -0.43804,-2.05713 -0.74696,-2.71197 l -0.56166,-1.19063 -0.0944,1.01065 c -0.0519,0.55586 0.0189,1.15117 0.15739,1.32292 0.13846,0.17174 0.33847,0.84805 0.44447,1.50289 0.22118,1.36637 0.31965,1.5875 0.70695,1.5875 0.1853,0 0.21703,-0.51258 0.0942,-1.52136 z m 7.40499,-5.12689 c 0.29784,-2.16554 -0.32146,-5.007 -1.35778,-6.22976 -0.70804,-0.83542 -0.93945,-0.96322 -1.32239,-0.73033 -0.75631,0.45996 -1.11939,1.93794 -1.14079,4.64381 l -0.0201,2.54485 1.09716,0.14716 c 0.60344,0.0809 1.33851,0.38851 1.63349,0.68349 0.29498,0.29498 0.62354,0.48243 0.73014,0.41655 0.10659,-0.0659 0.27773,-0.72998 0.3803,-1.47577 z m 12.32922,-2.14915 c 0.75541,-0.61846 1.50401,-1.33722 1.66356,-1.59724 0.15955,-0.26002 0.8739,-1.09346 1.58746,-1.85208 1.15062,-1.22331 2.76824,-4.01649 2.48823,-4.2965 -0.0578,-0.0578 -1.03951,1.19994 -2.1815,2.79507 -1.29926,1.81482 -2.25146,2.90023 -2.5443,2.90023 -0.25738,0 -0.77691,0.38696 -1.1545,0.8599 -0.3776,0.47294 -0.92396,1.10221 -1.21415,1.39837 -0.29019,0.29615 -0.52761,0.62358 -0.52761,0.7276 0,0.42013 0.5778,0.13309 1.88281,-0.93535 z m -3.89266,-1.01959 c 0.31805,-0.30611 1.10893,-0.7526 1.7575,-0.99218 1.44939,-0.53542 3.42735,-1.84935 3.42735,-2.27674 0,-0.17358 0.30788,-0.60424 0.68417,-0.95703 0.37629,-0.35279 1.23314,-1.46657 1.9041,-2.47506 0.67097,-1.00849 1.67278,-2.24274 2.22625,-2.74277 0.78797,-0.71188 1.00631,-1.10339 1.00631,-1.80439 0,-0.7646 0.0912,-0.89526 0.62494,-0.89526 0.54791,0 0.66204,-0.18479 0.92604,-1.49933 0.2803,-1.39575 0.38483,-3.94781 0.12047,-2.94152 -0.1465,0.55766 -1.52039,2.0596 -1.88401,2.0596 -0.14566,0 -0.38935,-0.35718 -0.54154,-0.79375 -0.15219,-0.43656 -0.35776,-0.79375 -0.45684,-0.79375 -0.0991,0 -0.64139,0.41672 -1.20515,0.92604 -0.82475,0.74512 -1.23968,0.92605 -2.12376,0.92605 -1.53318,0 -2.47205,-0.80185 -4.56982,-3.90291 -2.68176,-3.96433 -3.10212,-6.15126 -1.18237,-6.15126 0.44101,0 1.00236,0.10259 1.24746,0.22798 0.24509,0.12539 0.75946,0.30284 1.14304,0.39434 0.55906,0.13335 0.72575,0.058 0.8403,-0.38007 0.11922,-0.45591 0.23091,-0.49932 0.67426,-0.26205 0.65644,0.35132 0.83073,0.35706 0.83073,0.0274 0,-0.14136 -0.38695,-0.36229 -0.85989,-0.49097 -0.55535,-0.1511 -0.81798,-0.36462 -0.74153,-0.60288 0.0651,-0.2029 0.12463,-0.76107 0.13229,-1.24038 0.0165,-1.03395 0.21767,-1.10579 3.37,-1.20368 1.48566,-0.0461 2.60882,0.66561 2.95496,1.87256 0.18645,0.6501 0.0999,1.02384 -0.45714,1.97438 -0.73317,1.25107 -0.59666,1.80008 0.44759,1.80008 0.56267,0 0.56351,-0.006 -0.3459,2.51354 -0.31513,0.87312 -0.92085,1.95035 -1.34604,2.39384 -0.94307,0.98365 -0.96261,1.17803 -0.11842,1.17803 0.45627,0 0.77611,-0.23484 1.05541,-0.77496 0.22041,-0.42623 0.65202,-0.81319 0.95913,-0.8599 0.37623,-0.0572 0.67106,-0.41431 0.9038,-1.09463 0.40343,-1.17924 1.20698,-2.16823 1.44663,-1.78047 0.17816,0.28827 2.12553,-4.85395 2.12465,-5.61035 -2.6e-4,-0.25466 -0.10413,-0.46302 -0.23073,-0.46302 -0.12661,0 -0.37785,-0.52734 -0.55831,-1.17188 -0.18046,-0.64453 -0.61764,-1.44389 -0.97153,-1.77635 l -0.64344,-0.60447 -0.60275,0.75593 c -0.53481,0.67071 -0.69015,0.72681 -1.37795,0.49765 -1.03755,-0.34568 -1.09299,-0.91679 -0.14345,-1.4777 0.60138,-0.35524 0.93729,-0.40014 1.47221,-0.19676 0.98166,0.37322 1.16166,-0.28126 0.36915,-1.34226 -1.36028,-1.82113 -2.54509,-2.88624 -3.21059,-2.88624 -1.02099,0 -2.17479,2.08813 -2.10788,3.81482 0.0587,1.51447 -0.30979,1.35972 -0.67772,-0.28463 -0.34619,-1.54718 -2.0467,-3.53019 -3.02727,-3.53019 -0.79565,0 -2.04861,1.02267 -2.04861,1.67208 0,0.20527 -0.24677,0.68693 -0.54837,1.07036 l -0.54837,0.69714 h 1.14639 c 0.86681,0 1.32661,0.16712 1.8854,0.68525 0.90742,0.84142 0.81271,1.22475 -0.36733,1.4867 -1.17256,0.26028 -1.95605,0.0738 -2.60185,-0.61942 -0.4548,-0.48818 -0.62562,-0.52078 -1.36972,-0.26138 -0.46756,0.16299 -1.12726,0.29635 -1.46599,0.29635 -0.89341,0 -1.43154,1.0132 -1.75234,3.29936 -0.24703,1.76041 -0.22145,2.12185 0.22051,3.11632 0.27498,0.61872 0.99945,1.66444 1.60995,2.32382 0.6105,0.65938 1.35492,1.85001 1.65427,2.64583 0.39941,1.06181 0.87167,1.71106 1.77423,2.43915 0.67647,0.5457 1.41594,0.99219 1.64325,0.99219 0.30547,0 0.33586,0.0774 0.11648,0.29682 -0.16325,0.16325 -0.23404,0.46045 -0.1573,0.66043 0.10605,0.27636 -0.0452,0.32665 -0.63039,0.20961 -0.51881,-0.10376 -1.13196,0.0347 -1.87999,0.42463 -1.08943,0.56784 -1.49557,1.31892 -0.7132,1.31892 0.28317,0 0.39687,0.28814 0.39687,1.00573 0,1.33413 1.74194,4.06652 2.89766,4.54524 1.04077,0.4311 1.20303,0.70489 0.70998,1.19794 -0.55332,0.55333 -0.65632,0.51837 -1.75995,-0.59735 -1.92861,-1.94971 -3.36827,-2.66866 -3.83421,-1.91475 -0.29922,0.48414 0.66127,3.15046 1.4644,4.06517 0.63127,0.71897 0.7867,1.13906 0.7867,2.12615 0,0.81967 -0.1256,1.27835 -0.37641,1.37459 -0.46597,0.17881 -0.77039,0.89728 -0.38018,0.89728 0.15683,0 0.54536,-0.25045 0.86341,-0.55657 z m 5.80967,-8.57163 c -0.0751,-0.19574 0.081,-0.58968 0.34691,-0.87542 0.26592,-0.28575 0.95078,-1.18792 1.52193,-2.00483 0.57115,-0.81691 1.20737,-1.4853 1.41383,-1.4853 0.20646,0 0.43765,-0.23812 0.51376,-0.52916 0.19973,-0.76374 0.55606,-0.65265 0.40704,0.12689 -0.069,0.36083 -0.51533,1.06949 -0.99189,1.57479 -0.47656,0.5053 -1.12245,1.44751 -1.43531,2.0938 -0.57442,1.18658 -1.51855,1.77085 -1.77627,1.09923 z m 0.6981,-20.22493 c 0,-0.28246 0.10659,-0.57943 0.23686,-0.65994 0.28432,-0.17572 0.62115,0.59088 0.40984,0.93278 -0.26068,0.42178 -0.6467,0.25892 -0.6467,-0.27284 z m -10.51882,27.72891 c -0.23613,-0.91126 -0.94635,-1.30394 -1.44908,-0.80121 -0.5054,0.5054 0.002,1.5892 0.7899,1.68613 0.94673,0.11652 0.92592,0.14446 0.65918,-0.88492 z m -1.18441,-2.23296 c 0.0804,-0.57819 -0.85074,-2.22823 -1.25747,-2.22823 -0.14766,0 -0.26847,0.39022 -0.26847,0.86717 0,1.53398 1.3361,2.72571 1.52594,1.36106 z m 18.23397,-0.16118 c -0.0845,-0.21106 -0.14716,-0.14837 -0.15985,0.15986 -0.0115,0.27891 0.051,0.43518 0.13896,0.34726 0.0879,-0.0879 0.0973,-0.31612 0.0209,-0.50712 z m 0.26458,-1.05833 c -0.0845,-0.21107 -0.14716,-0.14837 -0.15985,0.15985 -0.0115,0.27892 0.051,0.43519 0.13896,0.34727 0.0879,-0.0879 0.0973,-0.31613 0.0209,-0.50712 z m -1.63595,-0.43546 c 0,-0.47854 -0.51787,-0.39118 -0.62058,0.10469 -0.0571,0.27588 0.042,0.39684 0.26459,0.32265 0.19579,-0.0653 0.35599,-0.25757 0.35599,-0.42734 z m 1.90692,-1.43007 c -0.0633,-0.32912 -0.11747,-0.12215 -0.1204,0.45993 -0.003,0.58208 0.0488,0.85136 0.11506,0.5984 0.0662,-0.25297 0.0686,-0.72922 0.005,-1.05833 z m -1.51004,-0.21714 c 0,-0.13694 -0.11906,-0.24897 -0.26459,-0.24897 -0.14552,0 -0.26458,0.18562 -0.26458,0.41249 0,0.22687 0.11906,0.3389 0.26458,0.24897 0.14553,-0.0899 0.26459,-0.27556 0.26459,-0.41249 z m 1.23356,-1.63803 c -0.0734,-0.1819 -0.13345,-0.0331 -0.13345,0.33073 0,0.3638 0.06,0.51263 0.13345,0.33073 0.0734,-0.18191 0.0734,-0.47956 0,-0.66146 z m -7.66831,-8.99584 c -0.43211,-1.05905 -1.23817,-1.32143 -1.23817,-0.40304 0,0.74769 0.45367,1.26294 1.11201,1.26294 0.43375,0 0.44519,-0.078 0.12616,-0.8599 z m 3.47559,-3.69105 c -0.046,-0.31184 -0.23689,-0.61749 -0.4243,-0.67924 -0.296,-0.0975 -0.32482,0.78723 -0.0669,2.05519 0.0857,0.42116 0.5602,-0.90801 0.49124,-1.37595 z m -22.37944,-10.79488 c 0.18176,-0.29105 0.46916,-0.52917 0.63867,-0.52917 0.16951,0 0.80698,-0.41672 1.41659,-0.92604 0.60962,-0.50932 1.2162,-0.92604 1.34795,-0.92604 0.48946,0 0.21683,-1.0089 -0.45385,-1.67959 -0.38138,-0.38137 -0.76833,-0.65988 -0.8599,-0.61891 -1.39555,0.62441 -1.75817,0.99522 -2.59151,2.65 -0.5045,1.00181 -0.85361,1.98739 -0.77579,2.19019 0.20624,0.53745 0.89609,0.45084 1.27784,-0.16044 z m 95.11961,47.99698 c -0.0865,-0.0864 0.27114,-0.82675 0.79464,-1.6451 2.30437,-3.60233 4.17251,-8.57911 4.98451,-13.27897 0.58098,-3.36267 0.40093,-9.45077 -0.38037,-12.86173 -1.26934,-5.54161 -3.79224,-10.76371 -7.14165,-14.78238 -0.6042,-0.72493 -1.09856,-1.40954 -1.09856,-1.52135 0,-0.32114 13.02368,-0.24083 14.60521,0.0901 3.59164,0.75144 6.68989,3.37247 8.54125,7.22565 1.77853,3.70159 1.85667,4.32605 1.85667,14.83829 0,8.83108 -0.0277,9.35609 -0.59807,11.32395 -0.90464,3.12126 -2.03318,5.1204 -4.00159,7.08857 -3.1339,3.13352 -4.93877,3.67054 -12.35572,3.67628 -2.77703,0.002 -5.11987,-0.0668 -5.20632,-0.15327 z m -85.45832,-0.70271 c -0.061,-0.1819 0.10317,-0.80698 0.36492,-1.38907 0.32243,-0.71703 0.42553,-1.3783 0.3197,-2.05052 -0.1335,-0.84801 -0.084,-0.99341 0.34064,-1.0006 0.76606,-0.013 1.28573,-0.53227 2.05825,-2.05676 0.68136,-1.3446 1.16533,-1.7926 1.72612,-1.5978 0.30512,0.10598 -1.3625,3.95127 -2.21965,5.11818 -0.32068,0.43657 -0.91181,1.3593 -1.31363,2.05052 -0.74265,1.27755 -1.07699,1.52012 -1.27635,0.92605 z m 0.33147,-5.77031 c 0,-0.29963 0.11907,-0.47119 0.26459,-0.38126 0.14552,0.0899 0.26458,0.33509 0.26458,0.54479 0,0.20969 -0.11906,0.38126 -0.26458,0.38126 -0.14552,0 -0.26459,-0.24516 -0.26459,-0.54479 z m 83.36296,-18.67319 c -0.80794,-1.02713 -0.66685,-1.30168 0.26568,-0.517 0.44773,0.37674 0.97648,0.68498 1.17501,0.68498 0.19853,0 0.43454,0.11906 0.52448,0.26458 0.0951,0.15383 -0.16724,0.26458 -0.62664,0.26458 -0.53849,0 -0.96482,-0.22204 -1.33853,-0.69714 z"
         id="path6068"
         inkscape:connector-curvature="0" />
      <path
         style="fill:#0d99cf;stroke-width:0.26458332"
         d="m 391.01982,-112.77165 c -0.25415,-0.25415 -0.21742,-1.14653 0.0472,-1.14653 0.25612,0 1.09934,0.87848 1.09934,1.14532 0,0.23016 -0.91661,0.23113 -1.14653,10e-4 z m -3.0868,-1.94028 c 0,-0.14552 0.11906,-0.26458 0.26458,-0.26458 0.14552,0 0.26458,0.11906 0.26458,0.26458 0,0.14553 -0.11906,0.26459 -0.26458,0.26459 -0.14552,0 -0.26458,-0.11906 -0.26458,-0.26459 z m 49.60937,-10.60106 c -13.55499,-1.84839 -24.28101,-11.73145 -27.16251,-25.02781 -0.74217,-3.42465 -0.79615,-9.20103 -0.11829,-12.65758 1.39757,-7.12647 5.54255,-14.0838 10.98482,-18.43797 4.12528,-3.3005 8.89479,-5.60085 13.75602,-6.63457 3.59043,-0.76349 9.49109,-0.76333 13.04703,3.7e-4 6.73419,1.44626 13.67757,5.5928 17.75633,10.60399 1.51378,1.85983 3.7298,5.31735 3.53372,5.51343 -0.0633,0.0633 -0.41796,-0.39627 -0.7881,-1.02131 -0.67636,-1.14215 -1.6587,-1.77181 -4.68297,-3.00169 -1.62993,-0.66284 -1.88883,-0.89655 -1.71207,-1.54553 0.14277,-0.52419 0.12892,-0.52934 -0.22879,-0.0851 -0.35921,0.44605 -0.44252,0.44809 -1.47213,0.0361 -0.60025,-0.24018 -1.34121,-0.37135 -1.64656,-0.2915 -0.39163,0.10241 -0.59236,0.003 -0.68131,-0.33708 -0.14498,-0.55437 -1.98807,-1.47222 -2.53493,-1.26237 -0.20171,0.0774 -0.70198,0.80331 -1.11171,1.61313 -0.61618,1.21785 -0.68686,1.54242 -0.40884,1.87741 0.18487,0.22276 0.50805,0.40501 0.71818,0.40501 0.78582,0 0.27211,1.409 -0.72106,1.97774 -1.97915,1.13333 -2.10259,1.28423 -1.92845,2.35731 l 0.16073,0.99044 2.41003,-0.0457 c 1.32552,-0.0251 3.38323,-0.14543 4.57271,-0.26733 2.00024,-0.20498 2.26345,-0.17301 3.50443,0.42566 0.73796,0.35601 1.45834,0.64729 1.60084,0.64729 0.1425,0 0.43916,0.34822 0.65925,0.77383 0.37852,0.73198 0.35385,0.87448 -0.45623,2.63523 -0.80579,1.75143 -0.90809,1.86204 -1.73141,1.87201 -0.48126,0.006 -1.38959,-0.11898 -2.01851,-0.27734 -2.37743,-0.59864 -3.72794,1.17555 -2.0674,2.716 0.40018,0.37124 1.46477,1.06124 2.36576,1.53332 2.72825,1.42949 4.35817,3.42457 4.73792,5.79933 l 0.17238,1.07803 0.79139,-0.45844 c 0.94001,-0.54454 2.05286,-1.91818 2.05286,-2.53394 0,-0.3228 -0.23952,-0.43804 -0.91043,-0.43804 -1.4739,0 -1.31077,-0.42015 0.40622,-1.0462 1.97052,-0.71849 3.44329,-1.9303 2.95161,-2.42861 -0.53635,-0.54359 -0.38976,-0.68059 0.66007,-0.61685 0.94716,0.0575 1.00029,0.11107 1.2064,1.21601 0.11859,0.63572 0.14192,2.55292 0.0519,4.26044 -0.42542,8.06508 -3.68738,15.41987 -9.33826,21.05514 -1.5786,1.57424 -1.78366,1.70377 -1.85888,1.17413 -0.10389,-0.73146 -0.21376,-0.7339 -1.81175,-0.0403 -1.5779,0.68491 -3.46839,1.22958 -5.37975,1.54997 -3.18761,0.53432 -6.7984,1.41854 -7.72852,1.89259 -0.53991,0.27517 -1.16498,0.50031 -1.38906,0.50031 -0.22408,0 -0.40742,0.22355 -0.40742,0.49677 0,0.99097 -0.64151,1.17556 -3.51209,1.01057 -1.85828,-0.1068 -3.28565,-0.35811 -4.5577,-0.80246 -1.01865,-0.35583 -1.90368,-0.59848 -1.96674,-0.53922 -0.27882,0.26202 0.54822,0.66942 2.24766,1.1072 1.72906,0.44542 1.83094,0.51335 1.75311,1.16884 -0.0764,0.64375 0.0113,0.71002 1.16964,0.88372 3.32242,0.49823 9.40568,-0.50167 13.79581,-2.26761 1.34607,-0.54146 2.4474,-0.9337 2.4474,-0.87163 0,0.18001 -3.68538,1.81235 -5.42396,2.40239 -3.83777,1.30247 -9.83962,1.89681 -13.75834,1.36245 z m -7.13895,-11.21253 c 0.65204,-1.47438 1.24286,-1.9989 2.25154,-1.9989 0.34881,0 0.62522,-0.2061 0.70971,-0.52917 0.0852,-0.3257 0.3609,-0.52917 0.71708,-0.52917 0.73223,0 2.23129,-1.52716 2.49161,-2.53833 0.15393,-0.59792 0.5324,-0.92955 1.70152,-1.49096 1.90299,-0.9138 2.10177,-1.50747 1.14658,-3.4243 -0.37865,-0.75985 -0.68846,-1.64881 -0.68846,-1.97545 0,-1.38771 -0.98473,-1.00186 -1.56932,0.61491 -0.86587,2.3947 -2.46814,3.37356 -4.51719,2.75965 -0.87423,-0.26193 -1.16712,-0.53518 -1.67556,-1.56324 -0.33888,-0.6852 -0.7692,-1.96019 -0.95627,-2.83332 -0.41934,-1.95719 -1.21178,-3.57187 -1.75296,-3.57187 -0.59811,0 -1.42959,2.11058 -1.61541,4.10049 l -0.16184,1.73314 1.24523,1.14325 1.24523,1.14324 -0.23921,3.28213 c -0.38758,5.31781 -0.37407,6.09273 0.11565,6.63386 0.66277,0.73236 0.85881,0.61161 1.55207,-0.95596 z m 30.93516,-5.7259 c 0.37276,-0.56329 0.67775,-1.13964 0.67775,-1.28078 0,-0.14115 0.29766,-0.5778 0.66146,-0.97035 0.70899,-0.76502 0.78884,-1.08392 0.41803,-1.66963 -0.19625,-0.30998 -0.44825,-0.27037 -1.51731,0.23849 -0.70508,0.3356 -1.99634,0.68147 -2.86947,0.76858 l -1.5875,0.15839 0.0413,1.32292 c 0.0523,1.67533 0.35216,3.12569 0.69139,3.34435 0.55526,0.35791 2.79582,-0.87157 3.48433,-1.91197 z m 6.47376,-5.45664 c 0.61974,-1.58819 0.39649,-1.9619 -0.55395,-0.92727 -0.82778,0.90111 -1.38728,2.28852 -1.16084,2.8786 0.15895,0.41422 0.21277,0.40932 0.67482,-0.0614 0.27615,-0.28133 0.74414,-1.1318 1.03997,-1.88994 z m -7.58863,1.23407 c 1.38643,-0.38505 3.13724,-1.79708 3.86927,-3.12057 0.67532,-1.22097 1.0139,-3.62944 0.72597,-5.16423 -0.0971,-0.51756 -0.64866,-1.53831 -1.22571,-2.26833 -0.85072,-1.07624 -1.51197,-1.54816 -3.49585,-2.49492 -3.11144,-1.48485 -3.50921,-1.91425 -3.49103,-3.76858 0.0254,-2.58826 1.69411,-3.76463 4.30154,-3.03236 2.42119,0.67996 2.37357,0.68559 2.86161,-0.33784 0.59217,-1.2418 0.28773,-1.60021 -1.94504,-2.28985 -2.13031,-0.65798 -3.14853,-0.66607 -4.80115,-0.0381 -2.9789,1.13189 -4.37635,3.09137 -4.37635,6.13642 0,3.00356 1.33974,4.61822 5.448,6.56592 2.17516,1.03124 3.00375,2.15112 2.78704,3.76682 -0.18686,1.39311 -0.82541,2.31497 -1.92047,2.77251 -1.1697,0.48874 -3.06691,0.47727 -4.27095,-0.0258 -0.86453,-0.36122 -1.00453,-0.35916 -1.42453,0.0209 -0.43513,0.39379 -0.55164,0.29395 -1.77094,-1.51764 -1.1447,-1.70072 -2.29499,-3.52792 -4.07691,-6.47602 l -0.50331,-0.83271 3.14164,-4.32667 c 3.51537,-4.8414 3.79652,-5.29382 3.54081,-5.69797 -0.099,-0.15645 -0.79523,-0.36821 -1.54721,-0.47059 -1.65502,-0.22532 -1.35203,-0.51559 -4.93726,4.72991 -1.48351,2.17049 -2.80273,3.8969 -2.9316,3.83645 -0.12888,-0.0604 -0.20896,-1.74012 -0.17798,-3.73263 0.034,-2.18759 -0.0562,-3.8331 -0.22785,-4.15376 -0.25926,-0.48441 -0.54944,-0.5307 -3.30655,-0.52738 -2.00599,0.002 -3.10832,0.10912 -3.278,0.3173 -0.1406,0.17252 -0.85461,3.17116 -1.5867,6.66366 -0.73208,3.4925 -1.47181,6.70719 -1.64385,7.14375 l -0.31278,0.79375 -0.37792,-1.05833 c -0.20785,-0.58208 -1.02873,-3.79309 -1.82417,-7.13556 -0.79544,-3.34248 -1.59452,-6.21482 -1.77573,-6.38297 -0.1812,-0.16816 -0.76576,-0.37106 -1.29902,-0.4509 -1.21235,-0.18152 -1.6815,0.28702 -1.93341,1.93089 -0.17346,1.13186 -0.85986,4.14897 -2.45289,10.78177 -0.39319,1.63711 -0.78756,2.97656 -0.87637,2.97656 -0.0888,0 -0.37479,-1.22039 -0.63551,-2.71198 -0.26072,-1.49159 -0.6923,-3.66448 -0.95907,-4.82864 -0.26678,-1.16417 -0.55576,-2.65245 -0.6422,-3.3073 -0.6276,-4.75455 -0.77596,-5.02708 -2.73675,-5.02708 -2.25146,0 -2.27707,0.14594 -0.95148,5.42396 0.51167,2.03729 1.58283,6.4426 2.38036,9.78958 0.79753,3.34698 1.56487,6.35331 1.70519,6.68073 0.22009,0.51354 0.45361,0.59531 1.70001,0.59531 h 1.44487 l 0.66276,-2.18281 c 0.6204,-2.04326 1.09293,-3.96546 2.53672,-10.31904 0.58372,-2.56877 0.88028,-2.9815 1.14277,-1.59045 0.97788,5.18235 2.99022,13.51122 3.37705,13.97732 0.33939,0.40895 2.52421,0.52358 3.09313,0.1623 0.18116,-0.11504 0.63306,-1.63126 1.00423,-3.36938 1.46154,-6.84422 3.64262,-16.14551 3.87421,-16.52169 0.15097,-0.24522 0.2038,3.34385 0.13827,9.39271 -0.0583,5.38427 -0.0548,9.93841 0.008,10.12032 0.0738,0.21417 0.66244,0.33072 1.67015,0.33072 1.21334,0 1.60953,-0.102 1.79848,-0.46302 0.13328,-0.25466 0.26353,-2.42462 0.28944,-4.82214 0.0259,-2.39752 0.0825,-4.39448 0.12567,-4.43769 0.0432,-0.0432 1.44698,2.09699 3.11948,4.756 l 3.04091,4.83456 2.82552,0.16177 c 1.55404,0.089 2.90156,0.23779 2.99449,0.33073 0.26642,0.26641 3.022,0.19419 4.10899,-0.10769 z m -1.31623,-5.04513 c 0.60856,-0.73297 0.58779,-1.85657 -0.0493,-2.66648 -0.28176,-0.35821 -1.25227,-1.04569 -2.15669,-1.52774 -1.9225,-1.02468 -3.50524,-2.38693 -4.3761,-3.76647 -0.93817,-1.48614 -1.48049,-1.67309 -2.46073,-0.84827 -0.69817,0.58747 -0.81292,0.86208 -0.81292,1.94538 0,1.04281 0.16645,1.47934 0.96068,2.51951 l 0.96068,1.25817 1.30575,-0.17322 c 0.96357,-0.12782 1.57853,-0.0529 2.34661,0.28601 0.96098,0.42398 1.04086,0.54031 1.04086,1.51573 0,2.07455 1.98696,2.96798 3.24115,1.45738 z m -33.75674,-15.03198 c 0.20146,-0.78984 0.49571,-1.59199 0.65388,-1.78257 0.15817,-0.19059 0.21267,-0.54172 0.12112,-0.78029 -0.27396,-0.71394 0.34911,-1.16046 1.61928,-1.16046 0.78201,0 1.41053,-0.17926 1.85536,-0.52917 0.37,-0.29104 0.90771,-0.52917 1.1949,-0.52917 0.52257,0 0.53419,-0.40932 0.0476,-1.67732 -0.10206,-0.26598 0.10074,-0.53575 0.59481,-0.79125 0.41232,-0.21322 0.96778,-0.62867 1.23435,-0.92323 0.4736,-0.52332 0.46753,-0.5465 -0.26521,-1.01467 -0.41244,-0.26352 -0.90944,-0.69523 -1.10445,-0.95935 -0.28068,-0.38017 -0.43333,-0.41487 -0.73257,-0.16652 -0.29839,0.24764 -0.49343,0.20925 -0.9261,-0.18232 -0.5362,-0.48525 -0.5562,-0.48495 -0.92108,0.0141 -0.20513,0.28054 -0.37297,0.78094 -0.37297,1.11199 0,0.33105 -0.19481,1.01042 -0.43291,1.50972 l -0.4329,0.90781 -0.89001,-0.89002 c -0.48951,-0.4895 -0.89002,-1.08197 -0.89002,-1.31659 0,-0.23462 0.53578,-0.96236 1.19063,-1.61721 0.65484,-0.65484 1.19062,-1.27174 1.19062,-1.37088 0,-0.36233 -1.35577,-1.63005 -1.74327,-1.63005 -0.21942,0 -0.54918,0.35733 -0.73282,0.79406 l -0.33388,0.79406 -0.57036,-0.53137 c -0.3137,-0.29225 -0.50677,-0.69707 -0.42906,-0.89959 0.30665,-0.7991 -0.42862,-0.62756 -1.72113,0.40155 -1.5351,1.22227 -1.97834,1.88273 -1.74882,2.60588 0.17981,0.56656 -1.46244,4.21478 -2.42565,5.38852 -0.33757,0.41135 -0.61376,0.98636 -0.61376,1.2778 0,0.43948 0.12414,0.50327 0.72761,0.37391 0.91333,-0.1958 2.27631,0.59605 2.79462,1.62358 0.20511,0.40662 0.45337,1.26373 0.55168,1.9047 0.0983,0.64096 0.24459,1.27189 0.32504,1.40207 0.0804,0.13017 0.74767,0.20106 1.48272,0.15752 l 1.33643,-0.0791 z m 25.48851,-3.72332 c 0,-0.14552 -0.11906,-0.26459 -0.26458,-0.26459 -0.14553,0 -0.26459,0.11907 -0.26459,0.26459 0,0.14552 0.11906,0.26458 0.26459,0.26458 0.14552,0 0.26458,-0.11906 0.26458,-0.26458 z m 2.38125,-3.12443 c 0,-0.11771 -0.17481,-0.44513 -0.38846,-0.72761 -0.21365,-0.28247 -0.39225,-0.77445 -0.39688,-1.09329 -0.0133,-0.91547 -0.4808,-0.97395 -1.33569,-0.16707 -0.92507,0.87312 -0.98663,1.14365 -0.26022,1.14365 0.29104,0 0.52917,-0.11907 0.52917,-0.26459 0,-0.14552 0.13196,-0.26458 0.29326,-0.26458 0.17577,0 0.2307,0.24929 0.13711,0.62218 -0.0859,0.3422 -0.079,0.69938 0.0154,0.79375 0.24681,0.24682 1.40628,0.21183 1.40628,-0.0424 z m -18.43494,-0.75383 c 0.27177,-0.27177 -0.35996,-0.88424 -0.91204,-0.88424 -0.32038,0 -0.49677,0.18789 -0.49677,0.52916 0,0.37798 0.17639,0.52917 0.61736,0.52917 0.33955,0 0.6957,-0.0783 0.79145,-0.17409 z m 2.82452,-3.53008 c 0.31086,-0.43656 0.66177,-0.79375 0.7798,-0.79375 0.11802,0 0.89417,-0.31112 1.72476,-0.69138 1.08729,-0.49777 1.42965,-0.77191 1.2226,-0.97896 -0.15816,-0.15816 -0.28817,-0.47212 -0.28889,-0.69768 -7.9e-4,-0.22556 -0.27154,-0.74778 -0.60182,-1.16051 -0.47241,-0.59034 -0.82485,-0.75363 -1.65233,-0.76555 -1.21632,-0.0175 -3.001,0.4213 -4.16811,1.02484 -0.80224,0.41485 -0.80546,0.42484 -0.27515,0.85232 0.75819,0.61118 0.93955,1.3134 0.50092,1.93963 -0.66139,0.94427 0.13518,2.06479 1.46786,2.06479 0.50375,0 0.89774,-0.24235 1.29036,-0.79375 z m -4.38063,-1.38179 c 0.62875,-0.89765 0.5217,-1.08686 -0.95483,-1.68764 -1.10727,-0.45054 -1.50884,-0.50206 -2.11882,-0.27182 -0.86327,0.32585 -0.84473,0.86029 0.0264,0.76159 0.84522,-0.0958 1.61936,0.38762 1.42634,0.89061 -0.16147,0.42079 0.30247,0.88367 0.8933,0.89125 0.17365,0.002 0.50107,-0.26056 0.7276,-0.58399 z m 11.98873,-0.13956 c 0.0683,-0.20734 -0.14608,-0.33073 -0.57459,-0.33073 -0.44463,0 -0.68351,0.14513 -0.68351,0.41528 0,0.49758 1.09052,0.42429 1.2581,-0.0845 z m -66.46815,51.10845 c -0.42392,-0.64697 -0.46694,-0.65783 -0.80029,-0.20194 -0.33917,0.46385 -0.37184,0.46407 -0.87791,0.006 -0.40278,-0.36451 -0.55575,-0.39461 -0.65455,-0.12878 -0.0975,0.26241 -0.17128,0.24524 -0.30282,-0.0705 -0.22684,-0.54448 0.26731,-1.8327 0.70105,-1.82758 0.66257,0.008 2.37985,0.72025 2.6092,1.08244 0.30421,0.48043 0.30971,1.82399 0.007,1.82399 -0.12878,0 -0.43575,-0.30767 -0.68215,-0.68373 z m 12.4131,-9.0397 c 0.0974,-0.40018 0.44315,-1.14433 0.76836,-1.65365 0.3252,-0.50932 0.92678,-1.69995 1.33685,-2.64583 1.47489,-3.40207 2.60774,-5.16511 4.67527,-7.27604 2.34074,-2.38987 3.06643,-3.76031 3.94092,-7.44232 0.56652,-2.38527 0.53736,-5.12539 -0.0545,-5.12539 -0.14573,0 -0.20269,-0.23813 -0.12658,-0.52917 0.0761,-0.29104 0.0177,-0.52916 -0.12974,-0.52916 -0.14747,0 -0.20105,-0.17479 -0.11908,-0.3884 0.082,-0.21363 0.0332,-0.45998 -0.1083,-0.54745 -0.14154,-0.0875 -0.17747,-0.28828 -0.0799,-0.44623 0.10593,-0.17141 0.0543,-0.21108 -0.12798,-0.0984 -0.56255,0.34768 -0.95806,-0.15616 -0.42727,-0.54429 0.26814,-0.19606 0.42087,-0.35648 0.3394,-0.35648 -0.0815,0 0.013,-0.68461 0.20988,-1.52136 0.19691,-0.83674 0.35987,-1.97931 0.36214,-2.53904 l 0.004,-1.01769 -0.84244,0.95154 c -0.46333,0.52335 -0.91753,0.95155 -1.00933,0.95155 -0.0918,0 -0.37442,-0.4352 -0.62807,-0.96712 -0.56385,-1.1824 -0.25805,-1.49779 1.22307,-1.26139 0.88028,0.14049 0.99218,0.096 0.99218,-0.39407 0,-0.30383 -0.11906,-0.55242 -0.26458,-0.55242 -0.14552,0 -0.26458,0.14287 -0.26458,0.3175 0,0.22521 -0.0822,0.23533 -0.28268,0.0348 -0.34082,-0.34081 0.28588,-2.02651 0.88326,-2.37581 0.61392,-0.35898 2.3856,-5.49631 2.26165,-6.55809 -0.0867,-0.74244 -0.007,-0.93728 0.43396,-1.05563 0.83643,-0.22471 11.52047,-0.17843 11.52047,0.0499 0,0.11125 -0.58196,0.92151 -1.29326,1.80059 -3.38624,4.18501 -5.68342,8.9819 -6.94586,14.50416 -0.80005,3.4996 -0.96584,9.31386 -0.36767,12.89403 0.78639,4.70667 2.63075,9.5811 5.0704,13.40044 0.48981,0.76681 0.89056,1.45142 0.89056,1.52136 0,0.0699 -4.954,0.12715 -11.00889,0.12715 h -11.00889 z m 79.45088,0.57042 c -0.0865,-0.0864 0.27114,-0.82675 0.79464,-1.6451 2.30437,-3.60233 4.17251,-8.57911 4.98451,-13.27897 0.58098,-3.36267 0.40093,-9.45077 -0.38037,-12.86173 -1.26934,-5.54161 -3.79224,-10.76371 -7.14165,-14.78238 -0.6042,-0.72493 -1.09856,-1.40954 -1.09856,-1.52135 0,-0.32114 13.02368,-0.24083 14.60521,0.0901 3.59164,0.75144 6.68989,3.37247 8.54125,7.22565 1.77853,3.70159 1.85667,4.32605 1.85667,14.83829 0,8.83108 -0.0277,9.35609 -0.59807,11.32395 -0.90464,3.12126 -2.03318,5.1204 -4.00159,7.08857 -3.1339,3.13352 -4.93877,3.67054 -12.35572,3.67628 -2.77703,0.002 -5.11987,-0.0668 -5.20632,-0.15327 z m -86.84664,-9.64005 c -0.58208,-0.28886 -1.45099,-0.814 -1.93091,-1.16699 -0.47992,-0.35299 -1.00153,-0.68478 -1.15912,-0.73732 -0.19545,-0.0652 -0.15096,-0.56194 0.13995,-1.56263 0.40503,-1.39327 0.40012,-1.54217 -0.0976,-2.9584 -0.28828,-0.82021 -0.52414,-1.76861 -0.52414,-2.10756 0,-0.89368 -1.47335,-3.10112 -2.06984,-3.10112 -0.57647,0 -1.11609,0.55966 -1.78577,1.85209 -0.3492,0.67392 -0.49426,1.61036 -0.53281,3.43958 -0.0654,3.10094 -0.35462,5.07767 -0.72499,4.95421 -0.15388,-0.0513 -0.76296,-0.66332 -1.3535,-1.36006 -1.02167,-1.20539 -1.07372,-1.35248 -1.07372,-3.03436 0,-1.7998 0.17538,-2.37922 1.7813,-5.88533 0.63546,-1.38733 0.76569,-1.95384 0.62346,-2.71198 -0.0989,-0.52707 -0.28371,-0.95831 -0.41073,-0.95831 -0.12703,0 -0.44072,-0.0805 -0.6971,-0.17888 -0.44008,-0.16887 -0.44129,-0.14338 -0.0216,0.45574 0.47668,0.68057 0.60604,2.50248 0.19569,2.7561 -0.37464,0.23154 -1.33869,-0.93162 -1.33869,-1.6152 0,-0.32951 0.12486,-0.87314 0.27745,-1.20805 0.22502,-0.49386 0.12452,-0.94622 -0.5318,-2.3937 -0.44509,-0.98162 -0.90867,-1.78476 -1.03019,-1.78476 -0.29052,0 -0.97288,0.80373 -1.18145,1.3916 -0.0908,0.25605 -0.0586,1.02996 0.0717,1.71979 0.21476,1.13721 0.0667,3.68562 -0.41485,7.13974 -0.23077,1.65535 -0.63042,1.09293 -0.63042,-0.88718 0,-1.81981 -0.33067,-2.72317 -1.5875,-4.33687 -1.00574,-1.29132 -1.52277,-2.37152 -1.98557,-4.1483 l -0.3983,-1.52921 0.78084,-1.0873 c 0.6715,-0.93506 2.10716,-5.25095 2.76642,-8.31644 0.0782,-0.3638 0.61336,-1.22904 1.18916,-1.92276 0.59496,-0.71679 1.28591,-1.97952 1.60055,-2.925 0.48136,-1.44648 0.67004,-1.7058 1.44507,-1.98606 0.49029,-0.17729 1.4293,-0.7958 2.08671,-1.37447 0.6574,-0.57867 1.32745,-1.05213 1.489,-1.05213 0.38893,0 1.32987,-0.53506 2.09379,-1.19062 0.47688,-0.40924 0.99856,-0.52917 2.30187,-0.52917 1.74309,0 2.74644,0.45007 2.01338,0.90312 -0.40196,0.24843 -1.08503,2.88092 -1.09129,4.20573 -0.002,0.51715 0.10417,0.80858 0.26045,0.71198 0.14552,-0.0899 0.2683,-0.72204 0.27285,-1.40467 0.0132,-1.98122 1.46377,-3.86332 4.30579,-5.58665 0.93112,-0.56461 5.30555,-1.60469 6.75773,-1.60675 0.91665,-0.001 3.4803,0.79146 3.4803,1.07622 0,0.1352 -0.22712,0.24581 -0.50472,0.24581 -0.38406,0 -0.58576,0.31625 -0.84377,1.32292 -0.35427,1.3823 -0.6227,1.64095 -0.89239,0.8599 -0.0879,-0.25467 -0.56901,-0.92565 -1.06906,-1.49108 l -0.90918,-1.02805 -1.37988,0.38387 c -1.14365,0.31815 -1.42267,0.5168 -1.62986,1.16034 -0.13749,0.42706 -0.6062,1.33408 -1.04159,2.01559 -0.67606,1.05823 -0.95093,1.26471 -1.88298,1.41449 -0.60025,0.0965 -1.34317,0.33473 -1.65093,0.5295 -0.74187,0.4695 -1.68939,2.32447 -1.68939,3.30734 0,0.52192 -0.13321,0.7856 -0.39687,0.7856 -0.21829,0 -0.39688,0.0994 -0.39688,0.2209 0,0.27262 2.41426,4.26711 3.27509,5.41878 0.34641,0.46343 0.87838,1.37839 1.18215,2.03324 0.30378,0.65484 0.74841,1.45705 0.98807,1.78268 0.40697,0.55296 0.40497,0.60387 -0.0302,0.77089 -0.25631,0.0984 -0.82309,0.044 -1.25952,-0.1207 -1.39871,-0.52795 -1.63927,0.10508 -0.58366,1.53588 0.3638,0.4931 0.66145,1.11574 0.66145,1.38362 0,0.26789 0.20836,0.80467 0.46302,1.19284 0.64676,0.98583 1.14012,2.97979 0.73728,2.97979 -0.6091,0 -1.17607,-0.69626 -1.99296,-2.4474 -0.45822,-0.98227 -0.95631,-1.78594 -1.10687,-1.78594 -0.15751,0 -0.19217,0.19661 -0.0816,0.46302 0.21162,0.51004 0.21026,0.62476 -0.0213,1.80099 -0.11146,0.56614 -0.0334,0.91323 0.26017,1.15688 0.23067,0.19144 0.4194,0.67102 0.4194,1.06573 0,0.39471 0.25542,1.48146 0.56759,2.415 0.31218,0.93354 0.54548,2.14383 0.51845,2.68953 -0.0521,1.05222 0.29505,1.2978 0.74806,0.52916 0.238,-0.40383 0.30681,-0.41228 0.53826,-0.0661 0.44869,0.67103 0.31367,1.99827 -0.25569,2.51354 -1.14704,1.03806 -0.16356,1.67198 1.0888,0.70181 0.34704,-0.26886 0.94212,-0.56469 1.32238,-0.65741 0.98422,-0.24 3.93882,-2.2667 3.93882,-2.70182 0,-0.20057 0.21218,-0.57767 0.4715,-0.838 0.80359,-0.80672 2.33974,-2.81559 2.78982,-3.64833 0.5215,-0.96489 2.22421,-2.67245 2.44485,-2.45182 0.53622,0.53622 0.38344,2.36126 -0.39126,4.67357 -1.08131,3.2275 -2.16474,4.80054 -5.41105,7.8563 -4.33074,4.07655 -7.68461,5.39463 -10.3549,4.06951 z m 2.89062,-3.72856 c -0.17147,-0.27744 -0.64166,-0.0547 -0.64166,0.30394 0,0.13236 0.17791,0.17239 0.39536,0.089 0.21744,-0.0834 0.32828,-0.26024 0.2463,-0.39289 z m 5.3175,-0.88845 c 2.92967,-2.09057 6.92267,-7.58643 6.69172,-9.21032 -0.0675,-0.47448 -0.31884,-0.23084 -1.33228,1.29133 -1.73697,2.6089 -5.53932,6.18781 -7.81287,7.35376 -1.00077,0.51322 -1.11242,1.13669 -0.26458,1.47748 0.90905,0.36539 0.944,0.35366 2.71801,-0.91225 z m -5.52189,-0.54457 c 0.0858,-0.2237 -0.0242,-0.61065 -0.24454,-0.8599 -0.22034,-0.24924 -1.09243,-1.90823 -1.93798,-3.68665 -1.4511,-3.05204 -1.94644,-3.71585 -2.51196,-3.36634 -0.4143,0.25606 -0.25201,2.05139 0.29427,3.25528 0.28785,0.63436 0.52336,1.51965 0.52336,1.96732 0,0.90069 0.88899,2.03869 1.59261,2.03869 0.24312,0 0.65754,0.23812 0.92093,0.52916 0.57149,0.6315 1.14809,0.68328 1.36331,0.12244 z m -10.37044,-14.92082 c 0.0837,-0.13547 0.0312,-0.32109 -0.11668,-0.41249 -0.14789,-0.0914 -0.2689,0.0194 -0.2689,0.2463 0,0.46475 0.15877,0.53318 0.38558,0.16619 z m 92.76696,4.57624 c -0.80794,-1.02713 -0.66685,-1.30168 0.26568,-0.517 0.44773,0.37674 0.97648,0.68498 1.17501,0.68498 0.19853,0 0.43454,0.11906 0.52448,0.26458 0.0951,0.15383 -0.16724,0.26458 -0.62664,0.26458 -0.53849,0 -0.96482,-0.22204 -1.33853,-0.69714 z m -73.04421,-1.13933 c 0,-0.13693 0.1177,-0.32171 0.26156,-0.41061 0.14998,-0.0927 0.19433,0.0135 0.10398,0.24897 -0.17589,0.45836 -0.36554,0.54223 -0.36554,0.16164 z m -2.04332,-5.18819 c -0.80002,-0.47951 -1.61102,-1.41133 -2.85607,-3.28152 -2.30004,-3.45494 -2.66941,-4.78511 -1.43733,-5.17615 0.27145,-0.0862 1.06412,0.0485 1.76149,0.29934 1.13436,0.40794 4.57523,0.72752 4.57523,0.42493 0,-0.066 -0.41671,-0.68768 -0.92604,-1.38152 -0.50932,-0.69384 -0.92604,-1.50671 -0.92604,-1.80638 0,-1.33341 2.9638,-1.89486 4.32994,-0.82025 1.00879,0.79351 0.92644,1.84214 -0.24665,3.1406 l -0.94379,1.04467 1.06097,0.54126 1.06096,0.54126 -0.59522,1.70214 c -0.72922,2.08532 -2.55868,4.13557 -3.20878,3.59604 -0.47078,-0.39071 -0.28482,-0.79559 0.36542,-0.79559 0.58289,0 2.01539,-1.95891 2.26209,-3.09334 0.20265,-0.93188 -0.22761,-2.02946 -0.72941,-1.86069 -0.18922,0.0636 -0.31282,0.67111 -0.31282,1.53743 0,1.25584 -0.0652,1.43222 -0.52917,1.43222 -0.41157,0 -0.52916,-0.17638 -0.52916,-0.79375 0,-0.69401 -0.0831,-0.78256 -0.66146,-0.70472 -0.3638,0.049 -0.77457,0.19779 -0.91281,0.33073 -0.13825,0.13293 -0.63724,0.2417 -1.10887,0.2417 -1.04487,0 -1.41049,0.48051 -0.73915,0.97141 0.31195,0.2281 0.50741,0.71867 0.52852,1.32646 0.0439,1.26454 0.7842,1.84869 2.63604,2.08006 0.79659,0.0995 1.44835,0.24341 1.44835,0.31974 0,0.32136 -0.97541,0.84219 -1.5875,0.84767 -0.3638,0.003 -1.16423,-0.29544 -1.77874,-0.66375 z m 1.56377,-2.78146 c 0.0637,-0.19099 0.27202,-0.39935 0.46302,-0.46302 0.19844,-0.0661 0.29765,0.0331 0.23151,0.23151 -0.0637,0.191 -0.27203,0.39936 -0.46302,0.46302 -0.19844,0.0661 -0.29766,-0.0331 -0.23151,-0.23151 z m -0.84336,-1.04179 c 0,-0.14552 0.24515,-0.26459 0.54478,-0.26459 0.29963,0 0.4712,0.11907 0.38126,0.26459 -0.0899,0.14552 -0.33509,0.26458 -0.54478,0.26458 -0.2097,0 -0.38126,-0.11906 -0.38126,-0.26458 z m 4.65245,-10.40206 c -0.44767,-0.32735 -0.43559,-0.37421 0.20471,-0.79375 1.12008,-0.7339 1.7758,-0.41062 1.23118,0.607 -0.33181,0.62 -0.76613,0.67648 -1.43589,0.18675 z m -9.6674,-0.38283 c -0.87135,-0.70558 -0.57106,-1.38595 0.61171,-1.38595 1.05442,0 2.307,0.86494 1.88143,1.29918 -0.56221,0.57364 -1.83708,0.61802 -2.49314,0.0868 z m 11.15971,-3.3752 c -0.47669,-0.50664 -0.76794,-0.92116 -0.64722,-0.92116 0.12072,0 0.62339,0.41672 1.11704,0.92604 0.49366,0.50932 0.7849,0.92384 0.64722,0.92116 -0.13769,-0.003 -0.64036,-0.41941 -1.11704,-0.92604 z m -21.59781,-3.27624 c -1.10355,-1.15186 -1.96355,-1.21577 -2.99768,-0.22277 -0.47076,0.45204 -0.92124,0.75657 -1.00107,0.67674 -0.0798,-0.0798 0.28621,-0.52387 0.81342,-0.98677 0.98509,-0.86492 1.49434,-0.91688 3.99096,-0.40725 0.69115,0.14108 1.00618,0.85085 0.59667,1.34429 -0.42196,0.50843 -0.56833,0.46624 -1.4023,-0.40424 z"
         id="path6066"
         inkscape:connector-curvature="0" />
      <path
         style="fill:#8e6d60;stroke-width:0.26458332"
         d="m 391.01982,-112.77165 c -0.25415,-0.25415 -0.21742,-1.14653 0.0472,-1.14653 0.25612,0 1.09934,0.87848 1.09934,1.14532 0,0.23016 -0.91661,0.23113 -1.14653,10e-4 z m -3.0868,-1.94028 c 0,-0.14552 0.11906,-0.26458 0.26458,-0.26458 0.14552,0 0.26458,0.11906 0.26458,0.26458 0,0.14553 -0.11906,0.26459 -0.26458,0.26459 -0.14552,0 -0.26458,-0.11906 -0.26458,-0.26459 z m -9.38297,-13.38373 c -0.42392,-0.64697 -0.46694,-0.65783 -0.80029,-0.20194 -0.33917,0.46385 -0.37184,0.46407 -0.87791,0.006 -0.40278,-0.36451 -0.55575,-0.39461 -0.65455,-0.12878 -0.0975,0.26241 -0.17128,0.24524 -0.30282,-0.0705 -0.22684,-0.54448 0.26731,-1.8327 0.70105,-1.82758 0.66257,0.008 2.37985,0.72025 2.6092,1.08244 0.30421,0.48043 0.30971,1.82399 0.007,1.82399 -0.12878,0 -0.43575,-0.30767 -0.68215,-0.68373 z m 5.01734,-18.10933 c -0.58208,-0.28886 -1.45099,-0.814 -1.93091,-1.16699 -0.47992,-0.35299 -1.00153,-0.68478 -1.15912,-0.73732 -0.19545,-0.0652 -0.15096,-0.56194 0.13995,-1.56263 0.40503,-1.39327 0.40012,-1.54217 -0.0976,-2.9584 -0.28828,-0.82021 -0.52414,-1.76861 -0.52414,-2.10756 0,-0.89368 -1.47335,-3.10112 -2.06984,-3.10112 -0.57647,0 -1.11609,0.55966 -1.78577,1.85209 -0.3492,0.67392 -0.49426,1.61036 -0.53281,3.43958 -0.0654,3.10094 -0.35462,5.07767 -0.72499,4.95421 -0.15388,-0.0513 -0.76296,-0.66332 -1.3535,-1.36006 -1.02167,-1.20539 -1.07372,-1.35248 -1.07372,-3.03436 0,-1.7998 0.17538,-2.37922 1.7813,-5.88533 0.63546,-1.38733 0.76569,-1.95384 0.62346,-2.71198 -0.0989,-0.52707 -0.28371,-0.95831 -0.41073,-0.95831 -0.12703,0 -0.44072,-0.0805 -0.6971,-0.17888 -0.44008,-0.16887 -0.44129,-0.14338 -0.0216,0.45574 0.47668,0.68057 0.60604,2.50248 0.19569,2.7561 -0.37464,0.23154 -1.33869,-0.93162 -1.33869,-1.6152 0,-0.32951 0.12486,-0.87314 0.27745,-1.20805 0.22502,-0.49386 0.12452,-0.94622 -0.5318,-2.3937 -0.44509,-0.98162 -0.90867,-1.78476 -1.03019,-1.78476 -0.29052,0 -0.97288,0.80373 -1.18145,1.3916 -0.0908,0.25605 -0.0586,1.02996 0.0717,1.71979 0.21476,1.13721 0.0667,3.68562 -0.41485,7.13974 -0.23077,1.65535 -0.63042,1.09293 -0.63042,-0.88718 0,-1.81981 -0.33067,-2.72317 -1.5875,-4.33687 -1.00574,-1.29132 -1.52277,-2.37152 -1.98557,-4.1483 l -0.3983,-1.52921 0.78084,-1.0873 c 0.6715,-0.93506 2.10716,-5.25095 2.76642,-8.31644 0.0782,-0.3638 0.61336,-1.22904 1.18916,-1.92276 0.59496,-0.71679 1.28591,-1.97952 1.60055,-2.925 0.48136,-1.44648 0.67004,-1.7058 1.44507,-1.98606 0.49029,-0.17729 1.4293,-0.7958 2.08671,-1.37447 0.6574,-0.57867 1.32745,-1.05213 1.489,-1.05213 0.38893,0 1.32987,-0.53506 2.09379,-1.19062 0.47688,-0.40924 0.99856,-0.52917 2.30187,-0.52917 1.74309,0 2.74644,0.45007 2.01338,0.90312 -0.40196,0.24843 -1.08503,2.88092 -1.09129,4.20573 -0.002,0.51715 0.10417,0.80858 0.26045,0.71198 0.14552,-0.0899 0.2683,-0.72204 0.27285,-1.40467 0.0132,-1.98122 1.46377,-3.86332 4.30579,-5.58665 0.93112,-0.56461 5.30555,-1.60469 6.75773,-1.60675 0.91665,-0.001 3.4803,0.79146 3.4803,1.07622 0,0.1352 -0.22712,0.24581 -0.50472,0.24581 -0.38406,0 -0.58576,0.31625 -0.84377,1.32292 -0.35427,1.3823 -0.6227,1.64095 -0.89239,0.8599 -0.0879,-0.25467 -0.56901,-0.92565 -1.06906,-1.49108 l -0.90918,-1.02805 -1.37988,0.38387 c -1.14365,0.31815 -1.42267,0.5168 -1.62986,1.16034 -0.13749,0.42706 -0.6062,1.33408 -1.04159,2.01559 -0.67606,1.05823 -0.95093,1.26471 -1.88298,1.41449 -0.60025,0.0965 -1.34317,0.33473 -1.65093,0.5295 -0.74187,0.4695 -1.68939,2.32447 -1.68939,3.30734 0,0.52192 -0.13321,0.7856 -0.39687,0.7856 -0.21829,0 -0.39688,0.0994 -0.39688,0.2209 0,0.27262 2.41426,4.26711 3.27509,5.41878 0.34641,0.46343 0.87838,1.37839 1.18215,2.03324 0.30378,0.65484 0.74841,1.45705 0.98807,1.78268 0.40697,0.55296 0.40497,0.60387 -0.0302,0.77089 -0.25631,0.0984 -0.82309,0.044 -1.25952,-0.1207 -1.39871,-0.52795 -1.63927,0.10508 -0.58366,1.53588 0.3638,0.4931 0.66145,1.11574 0.66145,1.38362 0,0.26789 0.20836,0.80467 0.46302,1.19284 0.64676,0.98583 1.14012,2.97979 0.73728,2.97979 -0.6091,0 -1.17607,-0.69626 -1.99296,-2.4474 -0.45822,-0.98227 -0.95631,-1.78594 -1.10687,-1.78594 -0.15751,0 -0.19217,0.19661 -0.0816,0.46302 0.21162,0.51004 0.21026,0.62476 -0.0213,1.80099 -0.11146,0.56614 -0.0334,0.91323 0.26017,1.15688 0.23067,0.19144 0.4194,0.67102 0.4194,1.06573 0,0.39471 0.25542,1.48146 0.56759,2.415 0.31218,0.93354 0.54548,2.14383 0.51845,2.68953 -0.0521,1.05222 0.29505,1.2978 0.74806,0.52916 0.238,-0.40383 0.30681,-0.41228 0.53826,-0.0661 0.44869,0.67103 0.31367,1.99827 -0.25569,2.51354 -1.14704,1.03806 -0.16356,1.67198 1.0888,0.70181 0.34704,-0.26886 0.94212,-0.56469 1.32238,-0.65741 0.98422,-0.24 3.93882,-2.2667 3.93882,-2.70182 0,-0.20057 0.21218,-0.57767 0.4715,-0.838 0.80359,-0.80672 2.33974,-2.81559 2.78982,-3.64833 0.5215,-0.96489 2.22421,-2.67245 2.44485,-2.45182 0.53622,0.53622 0.38344,2.36126 -0.39126,4.67357 -1.08131,3.2275 -2.16474,4.80054 -5.41105,7.8563 -4.33074,4.07655 -7.68461,5.39463 -10.3549,4.06951 z m 2.89062,-3.72856 c -0.17147,-0.27744 -0.64166,-0.0547 -0.64166,0.30394 0,0.13236 0.17791,0.17239 0.39536,0.089 0.21744,-0.0834 0.32828,-0.26024 0.2463,-0.39289 z m 5.3175,-0.88845 c 2.92967,-2.09057 6.92267,-7.58643 6.69172,-9.21032 -0.0675,-0.47448 -0.31884,-0.23084 -1.33228,1.29133 -1.73697,2.6089 -5.53932,6.18781 -7.81287,7.35376 -1.00077,0.51322 -1.11242,1.13669 -0.26458,1.47748 0.90905,0.36539 0.944,0.35366 2.71801,-0.91225 z m -5.52189,-0.54457 c 0.0858,-0.2237 -0.0242,-0.61065 -0.24454,-0.8599 -0.22034,-0.24924 -1.09243,-1.90823 -1.93798,-3.68665 -1.4511,-3.05204 -1.94644,-3.71585 -2.51196,-3.36634 -0.4143,0.25606 -0.25201,2.05139 0.29427,3.25528 0.28785,0.63436 0.52336,1.51965 0.52336,1.96732 0,0.90069 0.88899,2.03869 1.59261,2.03869 0.24312,0 0.65754,0.23812 0.92093,0.52916 0.57149,0.6315 1.14809,0.68328 1.36331,0.12244 z m -10.37044,-14.92082 c 0.0837,-0.13547 0.0312,-0.32109 -0.11668,-0.41249 -0.14789,-0.0914 -0.2689,0.0194 -0.2689,0.2463 0,0.46475 0.15877,0.53318 0.38558,0.16619 z m 25.56448,4.58988 c 0.0127,-0.30823 0.0754,-0.37092 0.15985,-0.15986 0.0764,0.191 0.067,0.4192 -0.0209,0.50712 -0.0879,0.0879 -0.15045,-0.0684 -0.13896,-0.34726 z m -5.84173,-1.15297 c 0,-0.13693 0.1177,-0.32171 0.26156,-0.41061 0.14998,-0.0927 0.19433,0.0135 0.10398,0.24897 -0.17589,0.45836 -0.36554,0.54223 -0.36554,0.16164 z m 4.95538,-0.83367 c -0.25772,-0.15004 -0.39953,-0.38454 -0.31512,-0.52112 0.25274,-0.40894 0.58078,-0.2824 0.72807,0.28085 0.0761,0.29104 0.11977,0.52554 0.097,0.52112 -0.0228,-0.004 -0.25224,-0.13081 -0.50996,-0.28085 z m -6.9987,-4.35452 c -0.80002,-0.47951 -1.61102,-1.41133 -2.85607,-3.28152 -2.30004,-3.45494 -2.66941,-4.78511 -1.43733,-5.17615 0.27145,-0.0862 1.06412,0.0485 1.76149,0.29934 1.13436,0.40794 4.57523,0.72752 4.57523,0.42493 0,-0.066 -0.41671,-0.68768 -0.92604,-1.38152 -0.50932,-0.69384 -0.92604,-1.50671 -0.92604,-1.80638 0,-1.33341 2.9638,-1.89486 4.32994,-0.82025 1.00879,0.79351 0.92644,1.84214 -0.24665,3.1406 l -0.94379,1.04467 1.06097,0.54126 1.06096,0.54126 -0.59522,1.70214 c -0.72922,2.08532 -2.55868,4.13557 -3.20878,3.59604 -0.47078,-0.39071 -0.28482,-0.79559 0.36542,-0.79559 0.58289,0 2.01539,-1.95891 2.26209,-3.09334 0.20265,-0.93188 -0.22761,-2.02946 -0.72941,-1.86069 -0.18922,0.0636 -0.31282,0.67111 -0.31282,1.53743 0,1.25584 -0.0652,1.43222 -0.52917,1.43222 -0.41157,0 -0.52916,-0.17638 -0.52916,-0.79375 0,-0.69401 -0.0831,-0.78256 -0.66146,-0.70472 -0.3638,0.049 -0.77457,0.19779 -0.91281,0.33073 -0.13825,0.13293 -0.63724,0.2417 -1.10887,0.2417 -1.04487,0 -1.41049,0.48051 -0.73915,0.97141 0.31195,0.2281 0.50741,0.71867 0.52852,1.32646 0.0439,1.26454 0.7842,1.84869 2.63604,2.08006 0.79659,0.0995 1.44835,0.24341 1.44835,0.31974 0,0.32136 -0.97541,0.84219 -1.5875,0.84767 -0.3638,0.003 -1.16423,-0.29544 -1.77874,-0.66375 z m 5.39962,-0.78952 c -0.54332,-1.13935 -0.54278,-1.08785 -0.0135,-1.29096 0.57156,-0.21933 2.21344,0.0975 2.21344,0.4271 0,0.2788 -1.35522,1.79888 -1.60378,1.79888 -0.0827,0 -0.35094,-0.42076 -0.59617,-0.93502 z m -3.83585,-1.99194 c 0.0637,-0.19099 0.27202,-0.39935 0.46302,-0.46302 0.19844,-0.0661 0.29765,0.0331 0.23151,0.23151 -0.0637,0.191 -0.27203,0.39936 -0.46302,0.46302 -0.19844,0.0661 -0.29766,-0.0331 -0.23151,-0.23151 z m 5.11822,0.0302 c -0.19902,-0.32202 0.48828,-1.99732 0.93188,-2.27148 0.2539,-0.15691 0.29553,0.0244 0.17549,0.76416 -0.16676,1.0276 -0.83864,1.94214 -1.10737,1.50732 z m -5.96158,-1.07201 c 0,-0.14552 0.24515,-0.26459 0.54478,-0.26459 0.29963,0 0.4712,0.11907 0.38126,0.26459 -0.0899,0.14552 -0.33509,0.26458 -0.54478,0.26458 -0.2097,0 -0.38126,-0.11906 -0.38126,-0.26458 z m 4.65245,-10.40206 c -0.44767,-0.32735 -0.43559,-0.37421 0.20471,-0.79375 1.12008,-0.7339 1.7758,-0.41062 1.23118,0.607 -0.33181,0.62 -0.76613,0.67648 -1.43589,0.18675 z m -9.6674,-0.38283 c -0.87135,-0.70558 -0.57106,-1.38595 0.61171,-1.38595 1.05442,0 2.307,0.86494 1.88143,1.29918 -0.56221,0.57364 -1.83708,0.61802 -2.49314,0.0868 z m 11.15971,-3.3752 c -0.47669,-0.50664 -0.76794,-0.92116 -0.64722,-0.92116 0.12072,0 0.62339,0.41672 1.11704,0.92604 0.49366,0.50932 0.7849,0.92384 0.64722,0.92116 -0.13769,-0.003 -0.64036,-0.41941 -1.11704,-0.92604 z m -21.59781,-3.27624 c -1.10355,-1.15186 -1.96355,-1.21577 -2.99768,-0.22277 -0.47076,0.45204 -0.92124,0.75657 -1.00107,0.67674 -0.0798,-0.0798 0.28621,-0.52387 0.81342,-0.98677 0.98509,-0.86492 1.49434,-0.91688 3.99096,-0.40725 0.69115,0.14108 1.00618,0.85085 0.59667,1.34429 -0.42196,0.50843 -0.56833,0.46624 -1.4023,-0.40424 z"
         id="path6064"
         inkscape:connector-curvature="0" />
      <path
         style="fill:#585957;stroke-width:0.26458332"
         d="m 378.83188,-128.51202 c -0.48949,-0.69884 -0.53722,-1.01657 -0.15273,-1.01657 0.28422,0 0.8844,1.31391 0.6893,1.50901 -0.062,0.062 -0.30345,-0.15961 -0.53657,-0.49244 z m -2.07751,-0.32655 c -0.68688,-0.52142 -0.6017,-1.27569 0.13229,-1.17144 0.42625,0.0605 0.61909,0.29118 0.67904,0.81215 0.0922,0.80108 -0.11088,0.891 -0.81133,0.35929 z m 7.11392,-17.48175 c -0.56211,-0.20039 -1.34253,-0.67141 -1.73427,-1.04672 -0.39174,-0.37531 -0.85456,-0.68238 -1.0285,-0.68238 -0.39474,0 -0.40985,-1.24005 -0.0284,-2.33415 0.23477,-0.67346 0.18601,-1.11974 -0.26459,-2.42178 -0.30381,-0.8779 -0.55239,-1.85134 -0.55239,-2.16319 0,-0.31185 -0.43005,-1.09182 -0.95565,-1.73326 -1.16346,-1.41985 -1.81549,-1.42164 -2.72887,-0.008 -0.43778,0.67778 -0.73067,0.91094 -0.91402,0.7276 -0.36774,-0.36774 -0.95771,-0.34071 -0.95771,0.0439 0,0.17252 -0.24201,0.57128 -0.53779,0.88613 -0.42967,0.45737 -0.48694,0.7062 -0.28485,1.23774 0.13911,0.3659 0.43443,0.73493 0.65625,0.82005 0.22182,0.0851 0.59329,0.52214 0.82549,0.97117 0.3653,0.70642 0.37688,1.01126 0.086,2.26257 -0.1902,0.81812 -0.48245,1.44616 -0.67293,1.44616 -0.18519,0 -0.33671,-0.1041 -0.33671,-0.23133 0,-0.12723 -0.41672,-0.68627 -0.92604,-1.24232 -1.45833,-1.59212 -1.27739,-3.11675 1.00588,-8.47573 0.60693,-1.42451 0.65239,-1.73133 0.38545,-2.60112 -0.21527,-0.70142 -0.59107,-1.1518 -1.30168,-1.55999 -0.71911,-0.41309 -1.14827,-0.93264 -1.53169,-1.85431 -0.57908,-1.39197 -0.88152,-1.45599 -1.69992,-0.35984 -0.49133,0.65809 -0.5047,0.8264 -0.19107,2.40428 0.2633,1.32467 0.26779,1.82641 0.0205,2.28854 -0.17422,0.32554 -0.2558,0.96761 -0.18128,1.42681 0.15485,0.95424 -0.39413,3.7153 -0.68156,3.42787 -0.10462,-0.10462 -0.19022,-0.83113 -0.19022,-1.61447 0,-1.51958 -0.39885,-2.52286 -1.62174,-4.07934 -1.89858,-2.4165 -2.63302,-5.46959 -1.55124,-6.44858 0.54899,-0.49683 1.41512,-2.95996 2.38743,-6.78943 0.43375,-1.70835 0.79228,-2.48169 1.5928,-3.43569 0.56818,-0.67711 1.27851,-1.88713 1.5785,-2.68894 0.47521,-1.27011 0.75704,-1.59722 2.1887,-2.54033 0.90379,-0.59538 2.04782,-1.37966 2.54228,-1.74284 0.49447,-0.36317 1.23058,-0.66032 1.63582,-0.66032 0.49659,0 0.78985,-0.16718 0.89955,-0.51282 0.0895,-0.28205 0.57627,-0.64929 1.08165,-0.81608 1.49427,-0.49315 4.03708,0.17398 3.03164,0.79538 -0.37751,0.23331 -1.05521,2.90716 -1.06126,4.18716 -0.002,0.51715 0.10417,0.80858 0.26045,0.71198 0.14552,-0.0899 0.2683,-0.72204 0.27285,-1.40467 0.01,-1.47687 0.76363,-2.84218 2.26852,-4.10882 1.83083,-1.54097 2.92774,-2.03915 5.6533,-2.56749 3.22679,-0.62552 3.71272,-0.63575 4.97685,-0.10485 0.84917,0.35663 0.92038,0.44888 0.52067,0.67461 -0.25466,0.14381 -0.46302,0.42713 -0.46302,0.62959 0,0.69713 -0.46862,0.65422 -1.46007,-0.13369 -1.17131,-0.93084 -1.30988,-0.9447 -2.84883,-0.28503 -0.87736,0.37608 -1.22554,0.69517 -1.36504,1.25096 -0.10299,0.41036 -0.55027,1.30632 -0.99394,1.99102 -0.68766,1.06124 -0.96771,1.2708 -1.89805,1.42031 -0.60025,0.0965 -1.34317,0.33473 -1.65093,0.5295 -0.74187,0.4695 -1.68939,2.32447 -1.68939,3.30734 0,0.52192 -0.13321,0.7856 -0.39687,0.7856 -0.71062,0 -0.42761,0.67095 1.53851,3.64752 1.95369,2.95773 3.79983,6.31588 3.58839,6.52731 -0.0631,0.0631 -0.58748,0.008 -1.16535,-0.12229 -1.50817,-0.34014 -1.69035,0.005 -0.87618,1.65784 1.9718,4.00398 2.24243,4.95837 1.40599,4.95837 -0.22188,0 -0.51925,-0.26789 -0.66082,-0.59531 -0.14158,-0.32743 -0.35752,-0.77391 -0.47988,-0.99219 -0.12236,-0.21828 -0.39054,-0.74452 -0.59595,-1.16941 -0.48897,-1.01147 -1.1217,-1.25284 -0.89273,-0.34056 0.0922,0.36759 0.0389,0.73658 -0.12075,0.83526 -0.45614,0.28191 -0.332,1.33865 0.24314,2.06982 0.56161,0.71397 0.75266,2.83822 0.25528,2.83822 -0.18881,0 -0.18881,0.159 0,0.51178 0.417,0.77918 0.33671,1.60489 -0.15606,1.60489 -0.33536,0 -0.39547,0.17237 -0.27325,0.78349 0.26925,1.34624 -0.32052,1.16119 -0.97715,-0.30659 -0.70464,-1.57511 -1.8696,-2.95284 -2.36051,-2.79162 -0.48926,0.16069 -0.54089,1.91814 -0.0975,3.32041 0.2162,0.6838 0.469,1.91639 0.56179,2.73909 0.15079,1.33681 0.25141,1.53007 0.94662,1.81803 0.42785,0.17722 0.7779,0.40798 0.7779,0.5128 0,0.10482 0.54144,0.19876 1.2032,0.20877 0.87738,0.0132 1.28224,-0.10838 1.4951,-0.44923 0.24482,-0.39202 0.41472,-0.42105 1.05343,-0.17996 1.13624,0.42888 0.83718,1.04768 -0.64493,1.33447 -0.80415,0.15559 -1.25471,0.37977 -1.25471,0.62426 0,0.29618 0.22182,0.34153 0.99218,0.20283 1.41935,-0.25556 2.51551,-0.27431 2.99665,-0.0513 0.70286,0.32583 3.55169,-1.82145 5.69359,-4.29147 2.35951,-2.72096 3.57169,-4.99969 3.67465,-6.90781 0.0815,-1.51094 0.25804,-1.84233 0.72995,-1.37042 0.98734,0.98734 -2.42767,8.29531 -4.86971,10.421 -0.71406,0.62156 -1.90968,1.69565 -2.65694,2.38687 -0.74727,0.69123 -1.47958,1.25678 -1.62736,1.25678 -0.14778,0 -0.5145,0.21848 -0.81492,0.48552 -0.7632,0.67839 -3.1426,1.63344 -4.03485,1.61953 -0.40958,-0.006 -1.20461,-0.17557 -1.76672,-0.37595 z m -0.6905,-1.9001 c 0.89648,-0.59692 1.31564,-1.15846 1.31564,-1.76252 0,-0.40338 -0.12394,-0.4733 -0.59531,-0.33581 -0.32742,0.0955 -0.81978,0.22472 -1.09413,0.28714 -0.64497,0.14676 -0.61438,0.10051 -0.82995,1.25458 -0.21192,1.13455 0.1113,1.284 1.20375,0.55661 z m -7.29461,-18.06697 c 0.0837,-0.13547 0.0312,-0.32109 -0.11668,-0.41249 -0.14789,-0.0914 -0.2689,0.0194 -0.2689,0.2463 0,0.46475 0.15877,0.53318 0.38558,0.16619 z m 9.94057,13.36264 c -0.39316,-1.03408 -0.31534,-1.1969 0.15619,-0.3268 0.22385,0.41304 0.34147,0.81651 0.2614,0.89659 -0.0801,0.0801 -0.26799,-0.17633 -0.41759,-0.56979 z m 1.58415,-1.54082 c 0.002,-0.1819 0.11947,-0.50932 0.26053,-0.7276 0.19987,-0.30927 0.25738,-0.23626 0.26054,0.33072 0.002,0.40019 -0.11502,0.72761 -0.26054,0.72761 -0.14552,0 -0.26276,-0.14883 -0.26053,-0.33073 z m -14.33131,-4.7625 c -0.37113,-0.60496 -0.35962,-2.05052 0.0163,-2.05052 0.1133,0 0.41426,0.23013 0.66881,0.5114 0.33591,0.37118 0.41393,0.73389 0.28456,1.32291 -0.21188,0.9647 -0.4746,1.02327 -0.9697,0.21621 z m 28.37107,-2.46944 c 0.0127,-0.30823 0.0754,-0.37092 0.15985,-0.15986 0.0764,0.191 0.067,0.4192 -0.0209,0.50712 -0.0879,0.0879 -0.15045,-0.0684 -0.13896,-0.34726 z m -0.76173,-2.01525 c -0.37337,-0.37337 -0.41492,-0.74083 -0.0838,-0.74083 0.12855,0 0.29599,0.23812 0.3721,0.52917 0.16151,0.6176 0.1362,0.63618 -0.28833,0.21166 z m -7.26133,-4.59577 c -0.82641,-0.54121 -2.31658,-2.39811 -2.31658,-2.88668 0,-0.0756 0.22354,-0.13755 0.49677,-0.13755 0.60323,0 0.98979,0.43176 1.22477,1.36798 0.17432,0.69457 0.42269,0.84685 2.56385,1.57192 0.53796,0.18217 0.91788,0.42866 0.84428,0.54774 -0.26633,0.43093 -1.84442,0.17096 -2.81309,-0.46341 z m 5.6566,-0.80261 c -0.17604,-0.38637 -0.25038,-0.7722 -0.16519,-0.85739 0.27003,-0.27003 1.05555,0.39342 1.05555,0.89152 0,0.75711 -0.53926,0.73644 -0.89036,-0.0341 z m 1.69541,-0.35125 c -0.0837,-0.13547 -0.0312,-0.32109 0.11668,-0.41249 0.14789,-0.0914 0.26889,0.0194 0.26889,0.2463 0,0.46475 -0.15876,0.53318 -0.38557,0.16619 z m -3.26994,-2.26836 c 0.16604,-0.36442 0.35295,-0.61152 0.41536,-0.54911 0.18687,0.18688 -0.21586,1.21169 -0.47617,1.21169 -0.13259,0 -0.10523,-0.29816 0.0608,-0.66258 z m 3.12635,0.0517 c 0,-0.33599 0.17481,-0.84201 0.38846,-1.12448 0.38328,-0.50675 0.38852,-0.50654 0.39326,0.0156 0.007,0.80164 -0.28529,1.7198 -0.548,1.7198 -0.12855,0 -0.23372,-0.2749 -0.23372,-0.61089 z m -11.20617,-1.83651 c -0.93443,-1.62872 -1.05124,-2.19073 -0.55787,-2.6841 0.52747,-0.52747 0.75308,-0.52546 2.23904,0.02 1.06799,0.39203 4.7625,0.72588 4.7625,0.43036 0,-0.0653 -0.47625,-0.68352 -1.05834,-1.37383 -0.58208,-0.69032 -1.05833,-1.5086 -1.05833,-1.8184 0,-1.23451 2.34715,-1.82873 3.94983,-0.99995 1.38153,0.71441 1.43476,1.842 0.15121,3.20295 -0.50932,0.54004 -0.92604,1.12925 -0.92604,1.30936 0,0.18011 -0.15685,0.45765 -0.34856,0.61675 -0.49333,0.40943 -3.61085,1.35552 -4.48008,1.3596 -0.40019,0.002 -0.96573,0.24154 -1.25678,0.53258 -0.29104,0.29104 -0.58367,0.52917 -0.6503,0.52917 -0.0666,0 -0.41145,-0.50602 -0.76628,-1.12448 z m 8.65665,-0.17061 c -0.0157,-0.59739 0.0683,-1.08616 0.18657,-1.08616 0.4417,0 0.51374,0.52585 0.18305,1.33626 l -0.34114,0.83606 z m 1.75577,-9.00805 c 0,-0.29963 0.11906,-0.54478 0.26458,-0.54478 0.14552,0 0.26458,0.17157 0.26458,0.38126 0,0.2097 -0.11906,0.45485 -0.26458,0.54478 -0.14552,0.0899 -0.26458,-0.0816 -0.26458,-0.38126 z m -10.70586,-0.17593 c -0.32806,-0.32807 -0.35514,-0.50898 -0.11879,-0.79375 0.40411,-0.48693 1.13761,-0.46623 2.15692,0.0609 0.78815,0.40757 0.80533,0.4485 0.33317,0.79375 -0.6706,0.49035 -1.85035,0.46006 -2.3713,-0.0609 z"
         id="path6062"
         inkscape:connector-curvature="0" />
    </g>
  </g>
</svg>
